<svg xmlns="http://www.w3.org/2000/svg" width="24" height="24" viewBox="0 0 24 24">
    <g fill="none" fill-rule="evenodd">
        <path fill="" d="M0 0h24v24H0z"/>
        <path fill="#63738a" d="M22.083 3H1.917C1.41 3 1 3.424 1 3.947v11.369c0 .523.41.947.917.947h17.416L18.417 21 23 16.263V3.947c0-.523-.41-.947-.917-.947zM12 12.095c0 .426-.32.71-.825.994a4.41 4.41 0 0 1-1.833.38c-2.2 0-3.713-1.516-3.713-4.027 0-2.51 1.559-4.074 3.804-4.074a3.605 3.605 0 0 1 1.604.285.807.807 0 0 1 .505.805c0 .426-.184.663-.505.663-.32 0-.733-.568-1.695-.568-.963 0-2.017.947-2.017 2.747 0 1.8.687 2.842 2.017 2.842 1.329 0 1.42-.805 1.97-.805a.63.63 0 0 1 .484.177c.13.125.204.302.204.486v.095zm6.417 0a1.04 1.04 0 0 1-.688.994 4.055 4.055 0 0 1-1.787.38c-2.2 0-3.667-1.516-3.667-4.027 0-2.51 1.558-4.074 3.804-4.074a4.005 4.005 0 0 1 1.696.285c.358.1.615.423.642.805a.628.628 0 0 1-.158.466.587.587 0 0 1-.438.197c-.504 0-.78-.568-1.742-.568S14.062 7.5 14.062 9.3c0 1.8.688 2.842 1.971 2.842 1.284 0 1.284-.805 1.834-.805s.55.284.55.663v.095z"/>
    </g>
</svg>
