<?xml version="1.0" encoding="UTF-8" standalone="no"?>
<svg width="114px" height="36px" viewBox="0 0 114 36" version="1.1" xmlns="http://www.w3.org/2000/svg" xmlns:xlink="http://www.w3.org/1999/xlink">
    <!-- Generator: sketchtool 44.1 (41455) - http://www.bohemiancoding.com/sketch -->
    <title>0386AFAC-395A-4FAF-9BF1-53236F1F5ACB</title>
    <desc>Created with sketchtool.</desc>
    <defs></defs>
    <g id="OVP-Footer" stroke="none" stroke-width="1" fill="none" fill-rule="evenodd">
        <g id="960-footer-mini" transform="translate(-40.000000, -53.000000)" fill="#FFFFFF">
            <path d="M65.0488281,53 L61.7089844,53 L61.7089844,79.8300781 L65.0488281,79.8300781 L65.0488281,68.6972656 C65.0488281,65.46875 67.2753906,63.1308594 70.3925781,63.1308594 C73.5097656,63.1308594 75.2910156,65.0234375 75.2910156,68.4746094 L75.2910156,79.8300781 L78.6308594,79.8300781 L78.6308594,68.140625 C78.5195312,63.1308594 75.4023438,59.9023438 70.6152344,59.9023438 C68.3886719,59.9023438 66.4960938,60.6816406 65.0488281,62.0175781 L65.0488281,53 Z M52.0234375,53.4453125 C45.2324219,53.4453125 40,59.1230469 40,66.8046875 C40,74.375 45.1210938,80.1640625 51.9121094,80.1640625 C56.03125,80.1640625 58.4804688,78.3828125 59.9277344,77.046875 L60.5957031,76.4902344 L58.1464844,74.1523438 L57.5898438,74.7089844 C55.8085938,76.15625 54.1386719,76.8242188 52.0234375,76.8242188 C47.125,76.8242188 43.4511719,72.4824219 43.4511719,66.8046875 C43.4511719,61.015625 47.125,56.7851562 52.0234375,56.7851562 C54.1386719,56.7851562 55.6972656,57.3417969 57.3671875,58.7890625 L57.9238281,59.1230469 L60.484375,56.6738281 L59.8164063,56.1171875 C58.4804688,54.8925781 56.03125,53.4453125 52.0234375,53.4453125 Z M123.162109,63.5761719 L123.162109,60.0136719 L116.816406,60.0136719 L116.816406,54.6699219 L113.476563,54.6699219 L113.476563,60.0136719 L111.25,60.0136719 L111.25,63.4648438 L113.476563,63.4648438 L113.476563,74.2636719 C113.476563,77.8261719 115.703125,80.0527344 119.265625,80.0527344 C120.601563,80.0527344 121.492188,79.8300781 122.494141,79.3847656 L123.050781,79.1621094 L123.050781,75.7109375 L121.826172,76.2675781 C120.935547,76.7128906 120.378906,76.8242188 119.488281,76.8242188 C117.595703,76.8242188 116.816406,76.0449219 116.816406,74.2636719 L116.816406,63.5761719 L123.162109,63.5761719 Z M132.068359,59.9023438 C126.835938,59.9023438 122.939453,64.2441406 122.939453,70.0332031 L122.939453,70.1445312 C122.939453,75.9335938 126.947266,80.2753906 132.402344,80.2753906 C136.521484,80.2753906 138.748047,78.3828125 140.417969,76.6015625 L140.974609,76.0449219 L138.636719,73.9296875 L138.080078,74.4863281 C136.410156,76.2675781 134.740234,77.046875 132.513672,77.046875 C129.953125,77.046875 127.058594,75.3769531 126.501953,71.703125 L141.085938,71.703125 L141.085938,70.2558594 C141.085938,64.0214844 137.412109,59.9023438 132.068359,59.9023438 Z M154,63.5761719 L154,60.125 L153.220703,60.0136719 C150.548828,59.9023438 147.876953,61.1269531 146.095703,63.2421875 L146.095703,60.3476563 L142.755859,60.3476563 L142.755859,79.8300781 L146.095703,79.8300781 L146.095703,71.703125 C146.095703,66.0253906 149.546875,63.5761719 152.998047,63.5761719 L154,63.5761719 Z M88.7617188,60.0136719 C85.9785156,60.0136719 83.8632813,60.7929688 82.0820313,61.5722656 L81.4140625,61.90625 L82.6386719,65.0234375 L83.4179688,64.4667969 C85.3105469,63.5761719 86.9804688,63.1308594 88.6503906,63.1308594 C90.8769531,63.1308594 93.6601563,64.0214844 93.6601563,67.5839844 C92.3242188,67.1386719 90.765625,67.0273438 88.6503906,67.0273438 C83.4179688,67.0273438 80.078125,69.5878906 80.078125,73.5957031 L80.078125,73.7070312 C80.078125,77.8261719 84.0859375,80.1640625 87.7597656,80.1640625 C90.5429688,80.1640625 92.4355469,79.0507812 93.6601563,78.0488281 L93.6601563,79.71875 L97,79.71875 L97,67.9179688 C96.8886719,62.9082031 93.9941406,60.0136719 88.7617188,60.0136719 Z M110.136719,63.5761719 L110.136719,60.0136719 L109.246094,60.0136719 C106.574219,60.0136719 104.013672,61.1269531 102.232422,63.3535156 L102.232422,60.3476562 L98.8925781,60.3476562 L98.8925781,79.8300781 L102.232422,79.8300781 L102.232422,71.703125 C102.232422,66.0253906 105.794922,63.5761719 109.023438,63.5761719 L110.136719,63.5761719 Z M131.957031,63.1308594 C135.408203,63.1308594 137.078125,65.8027344 137.523438,68.4746094 L126.501953,68.4746094 C127.058594,65.3574219 129.173828,63.1308594 131.957031,63.1308594 Z M88.5390625,70.2558594 C90.6542969,70.2558594 92.3242188,70.5898438 93.6601563,70.9238281 L93.6601563,72.2597656 C93.6601563,74.9316406 90.9882813,76.8242188 87.7597656,76.8242188 C85.5332031,76.9355469 83.4179688,75.8222656 83.4179688,73.5957031 C83.4179688,71.4804688 85.421875,70.2558594 88.5390625,70.2558594 Z M44.5644531,83.7265625 C43.2285156,83.7265625 42.0039063,84.8398438 42.0039063,86.2871094 C42.0039063,87.734375 43.2285156,88.8476562 44.5644531,88.8476562 C45.4550781,88.8476562 46.1230469,88.5136719 46.5683594,87.9570312 L46.0117188,87.4003906 C45.5664063,87.8457031 45.34375,88.0683594 44.5644531,88.0683594 C43.5625,88.0683594 42.8945313,87.2890625 42.8945313,86.2871094 C42.8945313,85.2851562 43.5625,84.5058594 44.5644531,84.5058594 C44.8984375,84.5058594 45.1210938,84.6171875 45.4550781,84.7285156 L45.6777344,84.9511719 L46.0117188,85.1738281 L46.5683594,84.5058594 C46.1230469,84.0605469 45.4550781,83.7265625 44.5644531,83.7265625 Z M52.46875,83.7265625 C50.7988281,83.7265625 49.796875,84.8398438 49.796875,86.2871094 C49.796875,87.734375 50.9101563,88.8476562 52.3574219,88.8476562 C54.0273438,88.8476562 55.0292969,87.734375 55.0292969,86.2871094 C55.0292969,84.8398438 54.1386719,83.7265625 52.46875,83.7265625 Z M62.8222656,85.1738281 L62.8222656,88.7363281 L63.7128906,88.7363281 L63.7128906,83.7265625 L62.8222656,83.7265625 L61.2636719,86.0644531 L59.7050781,83.7265625 L58.703125,83.7265625 L58.703125,88.7363281 L59.7050781,88.7363281 L59.7050781,85.1738281 L61.2636719,87.5117188 L62.8222656,85.1738281 Z M71.7285156,85.1738281 L71.7285156,88.7363281 L72.6191406,88.7363281 L72.6191406,83.7265625 L71.6171875,83.7265625 L70.0585938,86.0644531 L68.5,83.7265625 L67.609375,83.7265625 L67.609375,88.7363281 L68.5,88.7363281 L68.5,85.1738281 L70.0585938,87.5117188 L71.7285156,85.1738281 Z M77.2949219,83.7265625 L76.4042969,83.7265625 L76.4042969,86.6210938 C76.4042969,88.0683594 77.2949219,88.8476562 78.5195313,88.8476562 C79.7441406,88.8476562 80.6347656,88.0683594 80.6347656,86.6210938 L80.6347656,83.8378906 L79.7441406,83.8378906 L79.7441406,86.7324219 C79.7441406,87.6230469 79.2988281,88.0683594 78.5195313,88.0683594 C77.7402344,88.0683594 77.2949219,87.5117188 77.2949219,86.6210938 L77.2949219,83.7265625 Z M85.421875,85.1738281 L88.2050781,88.7363281 L88.984375,88.7363281 L88.984375,83.7265625 L88.09375,83.7265625 L88.09375,87.1777344 L85.421875,83.7265625 L84.53125,83.7265625 L84.53125,88.7363281 L85.421875,88.7363281 L85.421875,85.1738281 Z M92.8808594,83.7265625 L92.8808594,88.7363281 L93.7714844,88.7363281 L93.7714844,83.7265625 L92.8808594,83.7265625 Z M100.117188,83.7265625 C98.6699219,83.7265625 97.5566406,84.8398438 97.5566406,86.2871094 C97.5566406,87.734375 98.6699219,88.8476562 100.117188,88.8476562 C101.007813,88.8476562 101.564453,88.5136719 102.121094,87.9570312 L101.564453,87.4003906 C101.119141,87.8457031 100.673828,88.0683594 100.117188,88.0683594 C99.1152344,88.0683594 98.4472656,87.2890625 98.4472656,86.2871094 C98.4472656,85.2851562 99.1152344,84.5058594 100.117188,84.5058594 C100.451172,84.5058594 100.5625,84.6171875 100.896484,84.7285156 L101.564453,85.1738281 L102.121094,84.5058594 C101.564453,84.0605469 101.007813,83.7265625 100.117188,83.7265625 Z M109.023438,87.5117188 L109.691406,88.7363281 L110.582031,88.7363281 L108.244141,83.7265625 L107.464844,83.7265625 L105.238281,88.7363281 L106.128906,88.7363281 L106.685547,87.5117188 L109.023438,87.5117188 Z M120.601563,83.7265625 L120.601563,88.7363281 L121.492188,88.7363281 L121.492188,83.7265625 L120.601563,83.7265625 Z M127.949219,83.7265625 C126.279297,83.7265625 125.277344,84.8398438 125.277344,86.2871094 C125.277344,87.734375 126.390625,88.8476562 127.837891,88.8476562 C129.507813,88.8476562 130.509766,87.734375 130.509766,86.2871094 C130.509766,84.8398438 129.619141,83.7265625 127.949219,83.7265625 Z M135.074219,85.1738281 L137.857422,88.7363281 L138.636719,88.7363281 L138.636719,83.7265625 L137.746094,83.7265625 L137.746094,87.1777344 L135.074219,83.7265625 L134.072266,83.7265625 L134.072266,88.7363281 L135.074219,88.7363281 L135.074219,85.1738281 Z M144.091797,83.7265625 C143.089844,83.7265625 142.421875,84.2832031 142.421875,85.1738281 C142.421875,86.0644531 143.089844,86.5097656 144.091797,86.6210938 C144.314453,86.7324219 144.537109,86.7324219 144.648438,86.7324219 C144.982422,86.84375 145.09375,87.0664062 145.205078,87.1777344 L145.205078,87.4003906 C145.205078,87.8457031 144.871094,88.0683594 144.314453,88.0683594 C143.757812,88.0683594 143.201172,87.8457031 142.755859,87.4003906 L142.199219,88.0683594 C142.755859,88.5136719 143.535156,88.8476562 144.314453,88.7363281 C145.316406,88.7363281 146.095703,88.1796875 146.095703,87.2890625 C146.095703,86.5097656 145.761719,86.1757812 144.537109,85.8417969 C144.203125,85.7304688 143.980469,85.7304688 143.869141,85.6191406 C143.535156,85.6191406 143.423828,85.3964844 143.423828,85.2851562 C143.3125,85.1738281 143.3125,85.1738281 143.3125,85.0625 C143.3125,84.7285156 143.535156,84.5058594 144.091797,84.5058594 C144.537109,84.5058594 144.982422,84.7285156 145.427734,85.0625 L145.873047,84.3945312 C145.427734,83.9492188 144.982422,83.7265625 144.091797,83.7265625 Z M115.591797,88.8476562 L115.591797,84.6171875 L117.150391,84.6171875 L117.150391,83.8378906 L113.03125,83.8378906 L113.03125,84.6171875 L114.701172,84.6171875 L114.701172,88.8476562 L115.591797,88.8476562 Z M52.46875,84.5058594 C53.4707031,84.5058594 54.1386719,85.2851562 54.1386719,86.2871094 C54.1386719,87.2890625 53.4707031,88.0683594 52.46875,88.0683594 C51.4667969,88.0683594 50.7988281,87.2890625 50.7988281,86.2871094 C50.7988281,85.2851562 51.4667969,84.5058594 52.46875,84.5058594 Z M127.949219,84.5058594 C128.951172,84.5058594 129.619141,85.2851562 129.619141,86.2871094 C129.619141,87.2890625 128.951172,88.0683594 127.949219,88.0683594 C126.947266,88.0683594 126.279297,87.2890625 126.279297,86.2871094 C126.279297,85.2851562 126.947266,84.5058594 127.949219,84.5058594 Z M107.798828,84.7285156 L108.689453,86.7324219 L106.908203,86.7324219 L107.798828,84.7285156 Z" id=""></path>
        </g>
    </g>
</svg>