<svg xmlns="http://www.w3.org/2000/svg" width="24" height="24" viewBox="0 0 24 24">
    <g fill="none" fill-rule="evenodd">
        <path fill="#000" d="M0 0h24v24H0z"/>
        <path fill="#FFF" d="M12 2c1.406 0 2.702.254 3.887.762A10.094 10.094 0 0 1 19.07 4.93c.938.937 1.66 1.998 2.168 3.183.508 1.185.762 2.48.762 3.887 0 1.393-.26 2.695-.781 3.906a9.87 9.87 0 0 1-2.149 3.164 9.566 9.566 0 0 1-1.445 1.221 9.413 9.413 0 0 1-1.719.928c-.625.26-1.26.455-1.904.586-.645.13-1.312.195-2.002.195-1.393 0-2.695-.26-3.906-.781A9.87 9.87 0 0 1 4.93 19.07a9.87 9.87 0 0 1-2.149-3.164C2.261 14.696 2 13.393 2 12c0-.69.065-1.357.195-2.002.13-.644.326-1.28.586-1.904.26-.625.57-1.198.928-1.719a9.566 9.566 0 0 1 1.22-1.445A9.87 9.87 0 0 1 8.095 2.78C9.304 2.261 10.607 2 12 2zm4.277 7.148L12 13.426 7.723 9.148l-1.446 1.426L12 16.277l5.723-5.703-1.446-1.426z"/>
    </g>
</svg>
