<svg xmlns="http://www.w3.org/2000/svg" width="40" height="40" viewBox="0 0 40 40">
    <g fill="none" fill-rule="evenodd">
        <path fill="" d="M0 0h40v40H0z"/>
        <path fill="#ffffff" d="M20.04 6c1.796 0 3.586.163 5.37.488 1.784.326 3.522.827 5.215 1.504 3.385 1.328 6.51 3.32 9.375 5.977l-2.813 2.851c-2.395-2.24-5.09-3.945-8.085-5.117a29.873 29.873 0 0 0-4.473-1.27c-1.497-.299-3.04-.449-4.629-.449a25.72 25.72 0 0 0-4.629.41c-1.497.274-2.988.71-4.473 1.31a21.94 21.94 0 0 0-4.218 2.089 26.45 26.45 0 0 0-3.867 3.027L0 13.97c2.917-2.657 6.061-4.649 9.434-5.977C12.806 6.664 16.34 6 20.039 6zM20 16.82c2.214 0 4.388.404 6.523 1.211 2.136.808 4.089 2.005 5.86 3.594l-2.852 2.852c-1.328-1.224-2.8-2.142-4.414-2.754A14.316 14.316 0 0 0 20 20.805c-1.797 0-3.503.306-5.117.918-1.615.612-3.086 1.53-4.414 2.754l-2.852-2.852c1.771-1.589 3.724-2.786 5.86-3.594A18.311 18.311 0 0 1 20 16.821zm0 10.782c1.77 0 3.346.572 4.727 1.718L20 34.047l-4.727-4.727c1.38-1.146 2.956-1.718 4.727-1.718z"/>
    </g>
</svg>
