<svg xmlns="http://www.w3.org/2000/svg" width="24" height="24" viewBox="0 0 24 24">
    <path fill="#FFF" fill-rule="evenodd" d="M12 0c1.688 0 3.242.305 4.664.914a12.113 12.113 0 0 1 3.82 2.602 12.113 12.113 0 0 1 2.602 3.82C23.696 8.758 24 10.312 24 12c0 1.672-.312 3.234-.938 4.688a11.843 11.843 0 0 1-2.578 3.796 11.48 11.48 0 0 1-1.734 1.465c-.625.43-1.312.801-2.063 1.113-.75.313-1.511.547-2.285.704-.773.156-1.574.234-2.402.234-1.672 0-3.234-.312-4.688-.938a11.843 11.843 0 0 1-3.796-2.578 11.843 11.843 0 0 1-2.579-3.797C.313 15.235 0 13.672 0 12c0-.828.078-1.629.234-2.402.157-.774.391-1.535.704-2.286.312-.75.683-1.437 1.113-2.062a11.48 11.48 0 0 1 1.465-1.734A11.843 11.843 0 0 1 7.312.937C8.767.313 10.329 0 12 0zm0 3.633c-.547 0-1.004.187-1.371.562a1.9 1.9 0 0 0-.55 1.383c0 .531.183.984.55 1.36.367.375.824.562 1.371.562s1.004-.187 1.371-.563c.367-.375.55-.828.55-1.359a1.9 1.9 0 0 0-.55-1.383c-.367-.375-.824-.562-1.371-.562zm1.71 5.789h-3.42V19.71h3.42V9.42z"/>
</svg>
