<svg xmlns="http://www.w3.org/2000/svg" width="24" height="24" viewBox="0 0 24 24">
    <g fill="none" fill-rule="evenodd">
        <path fill="#000" d="M0 0h24v24H0z"/>
        <path fill="#FFF" d="M12 22c-1.406 0-2.702-.254-3.887-.762A10.094 10.094 0 0 1 4.93 19.07a10.094 10.094 0 0 1-2.168-3.183C2.254 14.702 2 13.407 2 12c0-1.393.26-2.695.781-3.906A9.87 9.87 0 0 1 4.93 4.93a9.566 9.566 0 0 1 1.445-1.221 9.413 9.413 0 0 1 1.719-.928c.625-.26 1.26-.455 1.904-.586C10.643 2.065 11.31 2 12 2c1.393 0 2.695.26 3.906.781A9.87 9.87 0 0 1 19.07 4.93a9.87 9.87 0 0 1 2.149 3.164c.52 1.21.781 2.513.781 3.906 0 .69-.065 1.357-.195 2.002-.13.644-.326 1.28-.586 1.904a9.413 9.413 0 0 1-.928 1.719 9.566 9.566 0 0 1-1.22 1.445 9.87 9.87 0 0 1-3.165 2.149c-1.21.52-2.513.781-3.906.781zm-4.277-7.148L12 10.574l4.277 4.278 1.446-1.426L12 7.723l-5.723 5.703 1.446 1.426z"/>
    </g>
</svg>
