<svg xmlns="http://www.w3.org/2000/svg" width="20" height="20" viewBox="0 0 20 20">
    <g fill="none" fill-rule="evenodd">
        <path fill="none" d="M0 0h20v20H0z"/>
        <path fill="#0d92ff" d="M10 0c1.406 0 2.702.254 3.887.762A10.094 10.094 0 0 1 17.07 2.93c.938.937 1.66 1.998 2.168 3.183C19.746 7.298 20 8.593 20 10c0 1.393-.26 2.695-.781 3.906a9.87 9.87 0 0 1-2.149 3.164 9.566 9.566 0 0 1-1.445 1.221 9.413 9.413 0 0 1-1.719.928c-.625.26-1.26.455-1.904.586-.645.13-1.312.195-2.002.195-1.393 0-2.695-.26-3.906-.781A9.87 9.87 0 0 1 2.93 17.07 9.87 9.87 0 0 1 .78 13.906C.261 12.696 0 11.393 0 10c0-.69.065-1.357.195-2.002.13-.644.326-1.28.586-1.904.26-.625.57-1.198.928-1.719a9.566 9.566 0 0 1 1.22-1.445A9.87 9.87 0 0 1 6.095.78C7.304.261 8.607 0 10 0zm4.277 5.723l-6.425 6.425L5.722 10l-1.445 1.426L7.852 15l7.87-7.852-1.445-1.425z"/>
    </g>
</svg>
