<svg xmlns="http://www.w3.org/2000/svg" width="30" height="30" viewBox="0 0 30 30">
    <path fill="#4d4f53" fill-rule="evenodd" d="M19.536 5.595a9.857 9.857 0 0 1 2.903 6.986 9.734 9.734 0 0 1-2.903 6.955 9.734 9.734 0 0 1-6.955 2.903 9.857 9.857 0 0 1-6.986-2.903 9.833 9.833 0 0 1-2.874-6.955 9.958 9.958 0 0 1 2.874-6.986A9.958 9.958 0 0 1 12.58 2.72a9.833 9.833 0 0 1 6.955 2.874M7.651.968C6.14 1.603 4.84 2.54 3.66 3.659A12.554 12.554 0 0 0 .968 7.651 13.373 13.373 0 0 0 0 12.581c0 1.723.363 3.417.968 4.899a12.898 12.898 0 0 0 2.691 3.992c1.119 1.119 2.48 2.086 3.992 2.691a12.81 12.81 0 0 0 4.93.998c2.933 0 5.655-1.028 7.802-2.722L27.943 30 30 27.943l-7.56-7.56a12.597 12.597 0 0 0 2.721-7.802 12.81 12.81 0 0 0-.998-4.93c-.605-1.512-1.512-2.812-2.691-3.992A12.898 12.898 0 0 0 17.48.968 13.095 13.095 0 0 0 12.58 0c-1.723 0-3.417.363-4.929.968"/>
</svg>
