<svg class="svg-icon-sprite" xmlns="http://www.w3.org/2000/svg" style="display: none;">
    <symbol id="arrow-right-icon" role="img" viewBox="0 0 64 64">
        <path fill="none" stroke="#000" stroke-width="2" d="M41 17l14 15-14 15M9 32h46" stroke-linecap="round" stroke-linejoin="round"/>
    </symbol>

    <symbol id="calendar-icon" role="img" viewBox="0 0 64 64">
        <path fill="none" stroke="#000" stroke-width="2" d="M44 19h3.3a3.7 3.7 0 0 1 3.7 3.7v24.6a3.7 3.7 0 0 1-3.7 3.7H16.7a3.7 3.7 0 0 1-3.7-3.7V22.7a3.7 3.7 0 0 1 3.7-3.7H20M29 19h6" stroke-linecap="round" stroke-linejoin="round"/>
        <path fill="none" stroke="#000" stroke-miterlimit="10" d="M13 27.5h38"/>
        <path fill="none" stroke="#000" stroke-width="2" d="M24.6 13v9M39.9 13v9" stroke-linecap="round" stroke-linejoin="round"/>
        <text transform="translate(32 45)" font-size="18" font-family="TWC Round" text-anchor="middle">7</text>
    </symbol>

    <symbol id="cog-icon" role="img" viewBox="0 0 64 64">
        <path fill="none" stroke="#000" stroke-width="2" d="M51 34v-4l-5.5-1.6a13.9 13.9 0 0 0-1.4-3.4l2.8-5-2.9-2.8-5 2.8a13.9 13.9 0 0 0-3.5-1.4L34 13h-4l-1.6 5.5a13.9 13.9 0 0 0-3.4 1.4l-5-2.8-2.8 2.9 2.8 5a13.9 13.9 0 0 0-1.4 3.5L13 30v4l5.5 1.6a13.9 13.9 0 0 0 1.4 3.4l-2.8 5 2.9 2.8 5-2.8a13.9 13.9 0 0 0 3.5 1.4L30 51h4l1.6-5.5a13.9 13.9 0 0 0 3.4-1.4l5 2.8 2.8-2.9-2.8-5a13.9 13.9 0 0 0 1.4-3.5z" stroke-linecap="round" stroke-linejoin="round"/>
        <circle cx="32" cy="32" r="7.5" fill="none" stroke="#000"/>
    </symbol>

    <symbol id="ellipsis-horizontal-icon" role="img" viewBox="0 0 64 64">
        <circle cx="14" cy="32" r="5" fill="none" stroke="#fff" stroke-width="2"/>
        <circle cx="32" cy="32" r="5" fill="none" stroke="#fff" stroke-width="2"/>
        <circle cx="50" cy="32" r="5" fill="none" stroke="#fff" stroke-width="2"/>
    </symbol>

    <symbol id="exclamation-circle-icon" role="img" viewBox="0 0 64 64">
        <circle cx="32" cy="32" r="19" fill="none" stroke="#fff" stroke-width="2" stroke-miterlimit="10"/>
        <path d="M32 44a2.7 2.7 0 0 1-2.8-2.7A2.8 2.8 0 1 1 32 44zM32 36.8a1.7 1.7 0 0 1-1.7-1.8s-.9-11.3-.9-12.5a2.3 2.3 0 0 1 2.5-2.5h.1a2.3 2.3 0 0 1 2.6 2.6c0 1.2-.9 12.5-.9 12.5a1.7 1.7 0 0 1-1.7 1.7z"/>
    </symbol>

    <symbol id="flick-icon" role="img" viewBox="0 0 64 64">
        <path fill="none" stroke="#fff" stroke-width="2" d="M24 41H14a2 2 0 0 1-2-2V19a2 2 0 0 1 2-2h36a2 2 0 0 1 2 2v20a2 2 0 0 1-2 2H40" stroke-linecap="round"/>
        <path fill="none" stroke="#fff" stroke-width="2" d="M32 25.5v30M23 33.5l9-8 9 8" stroke-linecap="round" stroke-linejoin="round"/>
    </symbol>

    <symbol id="folder-add-icon" role="img" viewBox="0 0 64 64">
        <rect width="38" height="24" x="13" y="23" fill="none" stroke="#000" stroke-width="2" rx="1.9" ry="1.9"/>
        <path fill="none" stroke="#000" stroke-width="2" d="M13 24.7v-6.4a1.3 1.3 0 0 1 1.3-1.3h15.4a1.3 1.3 0 0 1 1.3 1.3V23M25 35h14M32 42V28" stroke-linecap="round" stroke-linejoin="round"/>
    </symbol>

    <symbol id="hamburger-solid-icon" role="img" viewBox="0 0 64 64">
        <path fill="none" stroke="#fff" stroke-width="6" d="M14 14h36M14 32h36M14 50h36" stroke-linecap="round"/>
    </symbol>

    <symbol id="key-icon" role="img" viewBox="0 0 64 64">
        <path fill="none" stroke="#000" stroke-width="2" d="M62.6 30.9l-6.4-6.4a1.5 1.5 0 0 0-1.1-.5H30.8a16 16 0 1 0 0 16h5.6l3.4-3 3.8 3 4-3 2.9 3H55a1.6 1.6 0 0 0 1.1-.5l6.4-6.4a1.6 1.6 0 0 0 .1-2.2z" stroke-linejoin="round"/>
        <circle cx="12" cy="32" r="5" fill="none" stroke="#000" stroke-width="2" stroke-miterlimit="10"/>
    </symbol>

    <symbol id="lock-icon" role="img" viewBox="0 0 64 64">
        <path fill="none" stroke="#000" stroke-width="2" d="M49 28h-8V18a9 9 0 0 0-18 0v10h-8a2 2 0 0 0-2 2v21a4 4 0 0 0 4 4h30a4 4 0 0 0 4-4V30a2 2 0 0 0-2-2z" stroke-linejoin="round"/>
        <path fill="none" stroke="#000" stroke-width="2" d="M35 28v-9.9a3 3 0 0 0-3-3.1 3 3 0 0 0-3 3v10h6z" stroke-linejoin="round"/>
    </symbol>

    <symbol id="play-large-icon" role="img" viewBox="0 0 64 64">
        <path fill="none" stroke="#fff" stroke-width="2" d="M47.8 33.7L17.4 51.3a2 2 0 0 1-3-1.7V14.5a2 2 0 0 1 3-1.7l30.4 17.5a2 2 0 0 1 0 3.4z" stroke-linecap="round" stroke-linejoin="round"/>
    </symbol>

    <symbol id="plus-icon" role="img" viewBox="0 0 64 64">
        <path fill="none" stroke="#fff" stroke-width="2" d="M13 32h38M32 51V13" stroke-linecap="round" stroke-linejoin="round"/>
    </symbol>

    <symbol id="record-icon" role="img" viewBox="0 0 64 64">
        <circle cx="32" cy="32" r="15" fill="none" stroke="#fff" stroke-width="2" stroke-linecap="round" stroke-linejoin="round"/>
    </symbol>

    <symbol id="record-series-icon" role="img" viewBox="0 0 64 64">
        <circle cx="16" cy="32" r="15" fill="none" stroke="#fff" stroke-width="2" stroke-linecap="round" stroke-linejoin="round"/>
        <path fill="none" stroke="#fff" stroke-width="2" d="M44.3 46.5a15 15 0 1 0 0-29M28.3 46.5a15 15 0 1 0 0-29" stroke-linecap="round" stroke-linejoin="round"/>
    </symbol>

    <symbol id="remove-icon" role="img" viewBox="0 0 64 64">
        <path fill="none" stroke="#fff" stroke-width="2" d="M18.6 18.6l26.8 26.8M18.6 45.4l26.8-26.8" stroke-linecap="round" stroke-linejoin="round"/>
    </symbol>

    <symbol id="restart-icon" role="img" viewBox="0 0 64 64">
        <path fill="none" stroke="#fff" stroke-width="2" d="M14 18h22a14 14 0 0 1 0 28H24" stroke-linecap="round" stroke-linejoin="round"/>
        <path fill="none" stroke="#fff" stroke-width="2" d="M22 27l-8-9 8-9" stroke-linecap="round" stroke-linejoin="round"/>
    </symbol>

    <symbol id="search-icon" role="img" viewBox="0 0 64 64">
        <circle cx="35.2" cy="28.8" r="13" fill="none" stroke="#fff" stroke-width="2" transform="rotate(-45 35.147 28.842)" stroke-linecap="round" stroke-linejoin="round"/>
        <path fill="none" stroke="#fff" stroke-width="2" d="M26 38l-3.5 3.5" stroke-linecap="round"/>
        <path fill="none" stroke="#fff" stroke-width="4" d="M22.5 41.5l-5.7 5.7" stroke-linecap="round"/>
    </symbol>

    <symbol id="ticket-icon" role="img" viewBox="0 0 64 64">
        <g fill="none" stroke="#fff" stroke-width="2" stroke-linecap="square">
            <path d="M30.2 16.9l.5.8"/>
            <path d="M32.6 21l10.2 17.6" stroke-dasharray="1.86 3.71"/>
            <path d="M43.7 40.3l.5.8"/>
        </g>
        <path fill="none" stroke="#fff" stroke-width="2" d="M46.7 23.5a6 6 0 0 1 2.2-8.2l-4-6.9-39.8 23 4 6.9a6 6 0 1 1 6 10.4l4 6.9 39.8-23-4-6.9a6 6 0 0 1-8.2-2.2z" stroke-linejoin="round"/>
    </symbol>

    <symbol id="trash-icon" role="img" viewBox="0 0 64 64">
        <path fill="none" stroke="#fff" stroke-width="2" d="M19 17h26v33a4 4 0 0 1-4 4H23a4 4 0 0 1-4-4V17z"/>
        <path fill="none" stroke="#fff" stroke-width="2" d="M26 10h12M15 17h34M32 26v22M39 26v22M25 26v22" stroke-linecap="round"/>
    </symbol>

    <symbol id="wrench-icon" role="img" viewBox="0 0 64 64">
        <circle cx="46.7" cy="18.8" r="1.5" fill="none" stroke="#fff" transform="rotate(-45 46.794 18.817)" stroke-linejoin="round"/>
        <path fill="none" stroke="#fff" stroke-width="2" d="M22.4 51l4-6-1.9-4.3-4.7-.2-4.1 6.1a8.7 8.7 0 0 1 .4-9.2 9 9 0 0 1 10.1-3.6L43.9 16a4 4 0 0 1 5.7 5.7L31.9 39.3a9 9 0 0 1-1.1 7.9 8.8 8.8 0 0 1-8.4 3.8z" stroke-linejoin="round"/>
    </symbol>
</svg>
