<svg xmlns="http://www.w3.org/2000/svg" width="24" height="24" viewBox="0 0 24 24">
    <g fill="none" fill-rule="evenodd">
        <path fill="" d="M0 0h24v24H0z"/>
        <path fill="#63738a" d="M20.203 3c1.281 1.281 2.234 2.719 2.86 4.313.625 1.593.937 3.203.937 4.828 0 .797-.078 1.605-.234 2.425-.157.82-.395 1.621-.715 2.403-.32.781-.719 1.539-1.196 2.273a12.5 12.5 0 0 1-1.652 2.04l-1.5-1.5a11.209 11.209 0 0 0 2.367-3.61c.5-1.25.75-2.594.75-4.031 0-1.422-.25-2.782-.75-4.079a9.93 9.93 0 0 0-.996-1.863 13.75 13.75 0 0 0-1.37-1.699l1.5-1.5zm-10.5.258v17.765h-.82l-6.469-5.648H0V8.906h2.414l6.469-5.648h.82zm7.453 2.789c.86.875 1.496 1.828 1.91 2.86a8.6 8.6 0 0 1 .622 3.234 8.6 8.6 0 0 1-.622 3.234c-.414 1.031-1.05 1.984-1.91 2.86l-1.523-1.524a6.332 6.332 0 0 0 1.418-2.133c.32-.797.48-1.61.48-2.437 0-.829-.16-1.641-.48-2.438a6.332 6.332 0 0 0-1.418-2.133l1.523-1.523zm-3.023 3.047c.828.828 1.242 1.843 1.242 3.047 0 1.203-.414 2.218-1.242 3.046l-1.547-1.523c.422-.437.633-.945.633-1.523 0-.563-.211-1.07-.633-1.524l1.547-1.523z"/>
    </g>
</svg>
