<svg xmlns="http://www.w3.org/2000/svg" width="17" height="17" viewBox="0 0 17 17">
    <g fill="none" fill-rule="evenodd">
        <path fill="" d="M0 0h17v17H0z"/>
        <path fill="#63738a" d="M14.31 2a8.878 8.878 0 0 1 2.026 3.055A9.3 9.3 0 0 1 17 8.475c0 .564-.055 1.137-.166 1.718a8.831 8.831 0 0 1-.506 1.702 9.75 9.75 0 0 1-.847 1.61 8.854 8.854 0 0 1-1.17 1.444l-1.063-1.062a7.94 7.94 0 0 0 1.677-2.557 7.617 7.617 0 0 0 .531-2.855 7.96 7.96 0 0 0-.531-2.89 7.034 7.034 0 0 0-.706-1.319 9.74 9.74 0 0 0-.971-1.204L14.311 2zm-7.437.183v12.584h-.581L1.71 10.766H0V6.184h1.71l4.582-4.001h.581zm5.28 1.975c.608.62 1.06 1.295 1.352 2.026.294.73.44 1.494.44 2.29 0 .797-.146 1.561-.44 2.292-.293.73-.744 1.405-1.353 2.025l-1.079-1.08a4.592 4.592 0 0 0 1.345-3.237 4.592 4.592 0 0 0-1.345-3.237l1.08-1.079zM10.01 6.316c.586.587.88 1.306.88 2.159 0 .852-.294 1.571-.88 2.158l-1.096-1.08c.299-.31.448-.669.448-1.078 0-.399-.15-.759-.448-1.08l1.096-1.079z"/>
    </g>
</svg>
