<svg xmlns="http://www.w3.org/2000/svg" width="17" height="17" viewBox="0 0 17 17">
    <g fill="none" fill-rule="evenodd">
        <path fill="" d="M0 0h17v17H0z"/>
        <path fill="#fff" d="M1 2.992C1 1.892 1.893 1 2.992 1h11.016C15.108 1 16 1.893 16 2.992v11.016c0 1.1-.893 1.992-1.992 1.992H2.992C1.892 16 1 15.107 1 14.008V2.992zm2 1.004v9.008c0 .551.446.996.996.996h9.008c.551 0 .996-.446.996-.996V3.996A.995.995 0 0 0 13.004 3H3.996A.995.995 0 0 0 3 3.996zM7 1h3v2H7V1zM1 7v3h2V7H1zm6 7v2h3v-2H7zm7-7v3h2V7h-2z"/>
    </g>
</svg>
