<svg xmlns="http://www.w3.org/2000/svg" width="24" height="24" viewBox="0 0 24 24">
    <g fill="none" fill-rule="evenodd">
        <path fill="" d="M0 0h24v24H0z"/>
        <path fill="#fff" d="M1 2.991C1 1.891 1.89 1 2.991 1H21.01C22.109 1 23 1.89 23 2.991V21.01c0 1.1-.89 1.991-1.991 1.991H2.99A1.99 1.99 0 0 1 1 21.009V2.99zm3 2.01v13.998C4 19.555 4.448 20 5 20h14c.555 0 1-.448 1-1V5c0-.555-.448-1-1-1H5c-.555 0-1 .448-1 1zM10 1h4v3h-4V1zm-9 9v4h3v-4H1zm9 10v3h4v-3h-4zm10-10v4h3v-4h-3z"/>
    </g>
</svg>
