<svg xmlns="http://www.w3.org/2000/svg" width="40" height="40" viewBox="0 0 40 40">
    <g fill="none" fill-rule="evenodd">
        <path fill="" d="M0 0h40v40H0z"/>
        <path fill="#fff" d="M12.64 2.497C14.972 1.492 17.432 1 20 1c5.135 0 10.035 2.16 13.437 5.56C36.839 9.96 39 14.857 39 19.99c0 5.153-2.161 10.05-5.563 13.45C30.035 36.84 25.157 39 20 39S9.965 36.84 6.563 33.44C3.161 30.04 1 25.143 1 19.99 1 14.856 3.161 9.96 6.563 6.56c1.69-1.69 3.723-3.058 6.077-4.063zm5.199 9.473c.6.599 1.327.898 2.161.898 1.69 0 3.06-1.39 3.06-3.036 0-1.69-1.37-3.058-3.06-3.058a3.058 3.058 0 0 0-3.06 3.058c0 .834.3 1.54.899 2.138zm4.878 3.956h-5.434V32.2h5.434V15.926z"/>
    </g>
</svg>
