<svg xmlns="http://www.w3.org/2000/svg" width="24" height="24" viewBox="0 0 24 24">
    <g fill="none" fill-rule="evenodd">
        <path fill="" d="M0 0h24v24H0z"/>
        <path fill="#0d92ff" d="M12 1C5.925 1 1 5.925 1 12s4.925 11 11 11 11-4.925 11-11S18.075 1 12 1zm-.984 5.616a1.332 1.332 0 0 1 1.91 0c.255.288.398.657.406 1.042-.006.368-.15.72-.406.984-.233.273-.567.44-.926.463a1.274 1.274 0 0 1-.926-.405 1.39 1.39 0 0 1-.406-.984c-.023-.397.101-.789.348-1.1zm3.3 11.173H9.684v-1.736h.927c.057 0 .173 0 .173-.058a1.39 1.39 0 0 0 .058-.348V12H9.684v-1.563l1.158-.174.984-.29.695-.347h.637v5.963c-.008.176.011.352.058.522 0 .115.058 0 .173.057h.927v1.621z"/>
    </g>
</svg>
