<?xml version="1.0" encoding="UTF-8"?>
<svg width="440px" height="61px" viewBox="0 0 440 61" version="1.1" xmlns="http://www.w3.org/2000/svg" xmlns:xlink="http://www.w3.org/1999/xlink">
    <!-- Generator: Sketch 48.1 (47250) - http://www.bohemiancoding.com/sketch -->
    <title>Spectrum_Community_Solutions_Horiz_Rev_RGB</title>
    <desc>Created with Sketch.</desc>
    <defs>
        <polygon id="path-1" points="0.06 0.832 72.143 0.832 72.143 60.94 0.06 60.94"></polygon>
    </defs>
    <g id="Page-1" stroke="none" stroke-width="1" fill="none" fill-rule="evenodd">
        <g id="Spectrum_Community_Solutions_Horiz_Rev_RGB">
            <g id="Group-4">
                <mask id="mask-2" fill="white">
                    <use xlink:href="#path-1"></use>
                </mask>
                <g id="Clip-2"></g>
                <path d="M5.28,44.786 C8.269,47.339 12.758,48.611 18.742,48.611 C24.552,48.611 29.04,47.381 32.207,44.918 C35.375,42.278 36.958,38.581 36.958,33.831 C36.958,31.632 36.527,29.604 35.507,27.758 C34.572,26.068 32.984,24.475 31.062,23.514 C29.846,22.906 29.104,22.64 27.606,22.179 C25.987,21.685 17.936,19.487 17.122,19.272 C12.636,18.178 9.788,16.684 9.767,14.031 C9.999,8.898 14.783,8.487 17.423,8.487 C20.15,8.487 22.308,9.06 23.892,10.203 C26.732,12.416 26.416,15.224 26.416,15.224 L35.375,15.224 C35.198,10.824 33.612,7.255 30.623,4.528 C27.72,2.064 23.581,0.832 18.215,0.832 C12.494,0.832 8.139,2.02 5.147,4.395 C2.154,6.861 0.66,10.25 0.66,14.559 C0.675,20.099 3.3,23.363 5.675,24.854 C7.122,25.72 10.403,27.045 14.651,27.89 L18.22,28.668 C24.409,30.176 27.961,32.088 27.85,35.149 C27.783,36.997 27.147,38.408 25.738,39.375 C24.45,40.256 22.262,40.826 19.535,40.826 C16.454,40.826 14.036,40.211 12.275,38.979 C10.602,37.923 9.591,36.075 9.239,33.434 L0,33.434 C0.264,38.449 2.022,42.233 5.28,44.786" id="Fill-1" fill="#FFFFFF" mask="url(#mask-2)"></path>
                <path d="M47.866,56.49 C47.866,58.853 46.029,61 43.356,61 L38.847,61 L38.847,27.969 C39.371,19.182 42.566,12.177 55.914,11.7 C61.688,11.772 65.876,14.07 68.352,16.962 C71.007,20.413 72.143,24.698 72.143,30.092 C72.143,35.662 70.815,40.174 68.163,43.622 C65.51,46.985 62.104,48.664 57.948,48.664 C51.712,48.664 48.684,46.068 47.862,45.581 C47.862,45.883 47.866,56.49 47.866,56.49 M62.987,30.49 C62.987,27.04 62.355,19.745 55.294,19.745 C48.591,19.745 47.866,26.865 47.866,30.49 C47.866,39.67 53.085,40.837 55.561,40.837 C61.972,40.837 62.987,34.035 62.987,30.49" id="Fill-3" fill="#FFFFFF" mask="url(#mask-2)"></path>
            </g>
            <path d="M90.347,19.486 C96.019,19.41 96.9,24.238 97.079,26.614 L83.6158815,26.614 C83.6158815,26.614 83.502,19.613 90.347,19.486 M90.743,40.738 C88.456,40.623 84.102,40.176 83.703,32.556 L106.576,32.559 C106.58,32.326 106.576,29.819 106.582,29.813 C106.424,24.073 105.048,19.793 102.358,16.583 C99.454,13.415 95.363,11.831 90.081,11.831 C85.067,11.831 81.15,13.461 78.336,16.715 C75.607,19.882 74.245,24.285 74.245,29.914 C74.245,35.811 75.65,40.343 78.468,43.511 C81.283,46.766 85.2,48.394 90.213,48.394 C94.351,48.394 97.781,47.383 100.51,45.358 C103.237,43.423 105.1,40.598 106.067,36.899 L98.118,36.901 C96.948,40.218 93.959,40.9 90.743,40.738" id="Fill-5" fill="#FFFFFF"></path>
            <path d="M131.8,36.912 L140.476,36.912 C140.476,36.912 138.12,48.394 125.014,48.394 C111.91,48.394 108.683,37.875 108.683,30.965 C108.683,24.054 109.91,12.249 124.505,11.835 C137.99,11.634 140.212,23.317 140.212,23.317 L130.975,23.317 C130.975,23.317 130.078,19.367 124.58,19.492 C119.081,19.616 117.644,24.78 117.644,29.689 C117.644,34.598 118.865,40.738 124.97,40.738 C130.775,40.915 131.287,37.776 131.8,36.912" id="Fill-6" fill="#FFFFFF"></path>
            <path d="M151.674,22.007 L157.1,22.007 L157.097,12.754 L151.685,12.754 L151.685,6.815 C151.685,5.185 150.778,2.327 147.329,2.327 L142.578,2.327 L142.578,41.134 C142.578,45.181 144.147,47.602 147.547,47.602 C147.586,47.602 151.532,47.606 151.676,47.606 L151.674,22.007" id="Fill-7" fill="#FFFFFF"></path>
            <path d="M166.769,47.669 L166.769,29.587 C166.769,26.947 167.382,25.012 168.617,23.779 C169.847,22.547 171.738,21.931 174.292,21.931 L177.328,21.931 L177.328,12.559 C177.328,12.559 172.546,12.443 169.08,13.484 C166.851,14.151 164.875,15.068 163.205,16.386 C161.443,17.795 160.058,19.665 159.046,21.997 C158.035,24.33 157.53,27.211 157.53,30.643 L157.53,47.669 L166.769,47.669" id="Fill-8" fill="#FFFFFF"></path>
            <path d="M179.941,12.615 L189.18,12.615 L189.18,35.054 C189.18,35.054 188.848,41.123 195.253,41.127 C201.295,41.13 201.448,35.696 201.454,35.312 L201.454,16.969 C201.454,16.969 201.766,12.615 205.772,12.615 L210.564,12.615 C210.564,12.615 210.559,33.258 210.563,33.456 C210.5,34.592 211.774,48.394 195.253,48.338 C178.885,48.338 180.047,34.375 179.941,33.552 L179.941,12.615" id="Fill-9" fill="#FFFFFF"></path>
            <path d="M243.926,47.782 L234.773,47.782 L234.773,25.231 C234.773,22.632 233.703,19.129 228.537,19.129 C223.469,19.129 222.438,23.108 222.438,25.231 L222.438,47.782 L213.15,47.782 L213.15,27.088 C213.15,21.076 214.933,17.403 217.861,15.016 C220.759,12.655 224.469,11.878 228.272,11.699 C230.307,11.699 232.298,11.922 234.242,12.363 C236.187,12.807 237.956,13.69 239.549,15.016 C240.877,13.869 242.444,13.049 244.258,12.562 C246.07,12.076 247.946,11.71 249.896,11.699 C261.222,11.64 265.769,16.826 266.145,18.49 C266.145,18.514 266.147,47.782 266.147,47.782 L260.905,47.782 C259.58,47.782 256.396,46.881 256.396,43.272 L256.396,25.231 C256.42,22.673 255.523,19.129 250.16,19.129 C244.854,19.129 243.926,23.108 243.926,25.231 L243.926,47.782" id="Fill-10" fill="#FFFFFF"></path>
            <polyline id="Fill-11" fill="#0099D8" points="268.72 18.474 268.72 47.738 288 33.11 268.72 18.474"></polyline>
            <polygon id="Fill-12" fill="#FFFFFF" points="304.304 56.932 305.304 56.932 305.304 2.932 304.304 2.932"></polygon>
            <path d="M322.548,14.643 C323.707,13.458 325.182,12.865 326.973,12.865 C329.368,12.865 331.12,13.66 332.229,15.248 C332.841,16.141 333.169,17.035 333.214,17.934 L330.206,17.934 C330.015,17.244 329.769,16.723 329.47,16.371 C328.934,15.746 328.14,15.434 327.087,15.434 C326.016,15.434 325.171,15.875 324.552,16.757 C323.934,17.64 323.624,18.888 323.624,20.502 C323.624,22.117 323.95,23.326 324.604,24.13 C325.256,24.935 326.085,25.336 327.092,25.336 C328.123,25.336 328.91,24.991 329.451,24.301 C329.75,23.93 329.999,23.373 330.196,22.631 L333.185,22.631 C332.927,24.2 332.269,25.477 331.209,26.459 C330.149,27.442 328.792,27.934 327.137,27.934 C325.089,27.934 323.479,27.27 322.306,25.941 C321.134,24.607 320.548,22.777 320.548,20.453 C320.548,17.94 321.215,16.004 322.548,14.643" id="Fill-13" fill="#FFFFFF"></path>
            <path d="M344.08,24.066 C344.78,23.188 345.13,21.938 345.13,20.316 C345.13,18.702 344.78,17.454 344.08,16.571 C343.38,15.689 342.435,15.248 341.243,15.248 C340.052,15.248 339.102,15.688 338.392,16.566 C337.682,17.445 337.327,18.695 337.327,20.316 C337.327,21.938 337.682,23.188 338.392,24.066 C339.102,24.945 340.052,25.385 341.243,25.385 C342.435,25.385 343.38,24.945 344.08,24.066 Z M345.96,26.254 C344.873,27.374 343.301,27.934 341.243,27.934 C339.186,27.934 337.613,27.374 336.526,26.254 C335.068,24.881 334.339,22.901 334.339,20.316 C334.339,17.68 335.068,15.701 336.526,14.379 C337.613,13.26 339.186,12.699 341.243,12.699 C343.301,12.699 344.873,13.26 345.96,14.379 C347.412,15.701 348.138,17.68 348.138,20.316 C348.138,22.901 347.412,24.881 345.96,26.254 Z" id="Fill-14" fill="#FFFFFF"></path>
            <path d="M359.422,13.139 L363.75,13.139 L363.75,27.533 L360.947,27.533 L360.947,17.797 C360.947,17.518 360.95,17.125 360.957,16.62 C360.964,16.116 360.967,15.727 360.967,15.453 L358.239,27.533 L355.315,27.533 L352.607,15.453 C352.607,15.727 352.61,16.116 352.617,16.62 C352.624,17.125 352.627,17.518 352.627,17.797 L352.627,27.533 L349.824,27.533 L349.824,13.139 L354.201,13.139 L356.821,24.457 L359.422,13.139" id="Fill-15" fill="#FFFFFF"></path>
            <path d="M375.773,13.139 L380.102,13.139 L380.102,27.533 L377.299,27.533 L377.299,17.797 C377.299,17.518 377.302,17.125 377.309,16.62 C377.315,16.116 377.318,15.727 377.318,15.453 L374.591,27.533 L371.667,27.533 L368.959,15.453 C368.959,15.727 368.962,16.116 368.969,16.62 C368.976,17.125 368.979,17.518 368.979,17.797 L368.979,27.533 L366.176,27.533 L366.176,13.139 L370.553,13.139 L373.173,24.457 L375.773,13.139" id="Fill-16" fill="#FFFFFF"></path>
            <path d="M382.345,13.139 L385.401,13.139 L385.401,21.979 C385.401,22.969 385.519,23.69 385.752,24.146 C386.115,24.952 386.906,25.356 388.126,25.356 C389.339,25.356 390.127,24.952 390.49,24.146 C390.724,23.69 390.841,22.969 390.841,21.979 L390.841,13.139 L393.897,13.139 L393.897,21.986 C393.897,23.517 393.66,24.708 393.186,25.561 C392.302,27.123 390.615,27.904 388.126,27.904 C385.637,27.904 383.946,27.123 383.057,25.561 C382.582,24.708 382.345,23.517 382.345,21.986 L382.345,13.139" id="Fill-17" fill="#FFFFFF"></path>
            <polyline id="Fill-18" fill="#FFFFFF" points="396.16 13.139 399.313 13.139 405.027 23.176 405.027 13.139 407.83 13.139 407.83 27.533 404.823 27.533 398.963 17.32 398.963 27.533 396.16 27.533 396.16 13.139"></polyline>
            <polygon id="Fill-19" fill="#FFFFFF" points="410.174 27.534 413.162 27.534 413.162 13.139 410.174 13.139"></polygon>
            <polyline id="Fill-20" fill="#FFFFFF" points="426.052 13.139 426.052 15.688 421.745 15.688 421.745 27.533 418.718 27.533 418.718 15.688 414.392 15.688 414.392 13.139 426.052 13.139"></polyline>
            <polyline id="Fill-21" fill="#FFFFFF" points="436.166 13.139 439.574 13.139 434.76 22.136 434.76 27.533 431.752 27.533 431.752 22.136 426.771 13.139 430.316 13.139 433.305 19.408 436.166 13.139"></polyline>
            <path d="M323.341,43.09 C323.434,43.748 323.616,44.239 323.89,44.564 C324.388,45.157 325.242,45.453 326.452,45.453 C327.177,45.453 327.765,45.375 328.217,45.219 C329.074,44.92 329.503,44.363 329.503,43.549 C329.503,43.074 329.293,42.706 328.873,42.445 C328.453,42.191 327.786,41.967 326.874,41.771 L325.315,41.43 C323.784,41.092 322.732,40.724 322.159,40.326 C321.189,39.662 320.704,38.624 320.704,37.211 C320.704,35.922 321.179,34.852 322.128,33.998 C323.077,33.146 324.471,32.719 326.31,32.719 C327.845,32.719 329.154,33.121 330.239,33.925 C331.323,34.73 331.892,35.896 331.944,37.426 L329.054,37.426 C329,36.561 328.613,35.945 327.893,35.58 C327.412,35.34 326.814,35.219 326.101,35.219 C325.306,35.219 324.672,35.375 324.198,35.688 C323.724,36 323.487,36.437 323.487,36.996 C323.487,37.511 323.721,37.895 324.188,38.148 C324.488,38.318 325.126,38.517 326.101,38.744 L328.627,39.34 C329.733,39.601 330.563,39.949 331.116,40.385 C331.975,41.063 332.403,42.042 332.403,43.324 C332.403,44.64 331.895,45.731 330.878,46.601 C329.861,47.47 328.426,47.904 326.569,47.904 C324.675,47.904 323.185,47.477 322.099,46.62 C321.013,45.765 320.47,44.588 320.47,43.09 L323.341,43.09" id="Fill-22" fill="#FFFFFF"></path>
            <path d="M343.261,44.066 C343.961,43.188 344.311,41.937 344.311,40.316 C344.311,38.702 343.961,37.454 343.261,36.571 C342.561,35.689 341.615,35.248 340.424,35.248 C339.232,35.248 338.282,35.688 337.572,36.566 C336.862,37.445 336.508,38.695 336.508,40.316 C336.508,41.937 336.862,43.188 337.572,44.066 C338.282,44.945 339.232,45.385 340.424,45.385 C341.615,45.385 342.561,44.945 343.261,44.066 Z M345.141,46.254 C344.054,47.374 342.481,47.934 340.424,47.934 C338.366,47.934 336.794,47.374 335.707,46.254 C334.249,44.881 333.52,42.901 333.52,40.316 C333.52,37.68 334.249,35.701 335.707,34.379 C336.794,33.26 338.366,32.699 340.424,32.699 C342.481,32.699 344.054,33.26 345.141,34.379 C346.593,35.701 347.318,37.68 347.318,40.316 C347.318,42.901 346.593,44.881 345.141,46.254 Z" id="Fill-23" fill="#FFFFFF"></path>
            <polyline id="Fill-24" fill="#FFFFFF" points="349.073 33.139 352.081 33.139 352.081 44.945 359.269 44.945 359.269 47.533 349.073 47.533 349.073 33.139"></polyline>
            <path d="M360.13,33.139 L363.187,33.139 L363.187,41.98 C363.187,42.969 363.304,43.69 363.537,44.146 C363.9,44.952 364.691,45.356 365.911,45.356 C367.124,45.356 367.912,44.952 368.275,44.146 C368.509,43.69 368.626,42.969 368.626,41.98 L368.626,33.139 L371.683,33.139 L371.683,41.986 C371.683,43.517 371.445,44.708 370.971,45.561 C370.087,47.123 368.4,47.904 365.911,47.904 C363.422,47.904 361.731,47.123 360.842,45.561 C360.367,44.708 360.13,43.517 360.13,41.986 L360.13,33.139" id="Fill-25" fill="#FFFFFF"></path>
            <polyline id="Fill-26" fill="#FFFFFF" points="384.606 33.139 384.606 35.688 380.3 35.688 380.3 47.533 377.272 47.533 377.272 35.688 372.946 35.688 372.946 33.139 384.606 33.139"></polyline>
            <polygon id="Fill-27" fill="#FFFFFF" points="385.798 47.533 388.786 47.533 388.786 33.139 385.798 33.139"></polygon>
            <path d="M400.449,44.066 C401.149,43.188 401.499,41.937 401.499,40.316 C401.499,38.702 401.149,37.454 400.449,36.571 C399.749,35.689 398.804,35.248 397.612,35.248 C396.421,35.248 395.471,35.688 394.761,36.566 C394.051,37.445 393.696,38.695 393.696,40.316 C393.696,41.937 394.051,43.188 394.761,44.066 C395.471,44.945 396.421,45.385 397.612,45.385 C398.804,45.385 399.749,44.945 400.449,44.066 Z M402.329,46.254 C401.242,47.374 399.67,47.934 397.612,47.934 C395.555,47.934 393.982,47.374 392.896,46.254 C391.438,44.881 390.708,42.901 390.708,40.316 C390.708,37.68 391.438,35.701 392.896,34.379 C393.982,33.26 395.555,32.699 397.612,32.699 C399.67,32.699 401.242,33.26 402.329,34.379 C403.781,35.701 404.507,37.68 404.507,40.316 C404.507,42.901 403.781,44.881 402.329,46.254 Z" id="Fill-28" fill="#FFFFFF"></path>
            <polyline id="Fill-29" fill="#FFFFFF" points="406.213 33.139 409.366 33.139 415.08 43.176 415.08 33.139 417.883 33.139 417.883 47.533 414.876 47.533 409.016 37.32 409.016 47.533 406.213 47.533 406.213 33.139"></polyline>
            <path d="M422.575,43.09 C422.668,43.748 422.851,44.239 423.124,44.564 C423.622,45.157 424.477,45.453 425.687,45.453 C426.411,45.453 426.999,45.375 427.451,45.219 C428.309,44.92 428.737,44.363 428.737,43.549 C428.737,43.074 428.527,42.706 428.107,42.445 C427.688,42.191 427.021,41.967 426.108,41.771 L424.55,41.43 C423.019,41.092 421.967,40.724 421.394,40.326 C420.424,39.662 419.938,38.624 419.938,37.211 C419.938,35.922 420.413,34.852 421.362,33.998 C422.312,33.146 423.705,32.719 425.544,32.719 C427.079,32.719 428.389,33.121 429.474,33.925 C430.558,34.73 431.126,35.896 431.179,37.426 L428.288,37.426 C428.234,36.561 427.848,35.945 427.127,35.58 C426.646,35.34 426.049,35.219 425.335,35.219 C424.54,35.219 423.906,35.375 423.433,35.688 C422.958,36 422.722,36.437 422.722,36.996 C422.722,37.511 422.955,37.895 423.423,38.148 C423.723,38.318 424.36,38.517 425.335,38.744 L427.861,39.34 C428.968,39.601 429.798,39.949 430.351,40.385 C431.209,41.063 431.638,42.042 431.638,43.324 C431.638,44.64 431.129,45.731 430.112,46.601 C429.096,47.47 427.66,47.904 425.804,47.904 C423.909,47.904 422.419,47.477 421.333,46.62 C420.247,45.765 419.704,44.588 419.704,43.09 L422.575,43.09" id="Fill-30" fill="#FFFFFF"></path>
        </g>
    </g>
</svg>