<svg xmlns="http://www.w3.org/2000/svg" width="24" height="24" viewBox="0 0 24 24">
    <g fill="none" fill-rule="evenodd">
        <path fill="" d="M0 0h24v24H0z"/>
        <path fill="#fff" d="M12 0c1.688 0 3.242.305 4.664.914a12.113 12.113 0 0 1 3.82 2.602 12.113 12.113 0 0 1 2.602 3.82C23.696 8.758 24 10.312 24 12c0 1.672-.312 3.234-.938 4.688a11.843 11.843 0 0 1-2.578 3.796 11.48 11.48 0 0 1-1.734 1.465c-.625.43-1.312.801-2.063 1.113-.75.313-1.511.547-2.285.704-.773.156-1.574.234-2.402.234-1.672 0-3.234-.312-4.688-.938a11.843 11.843 0 0 1-3.796-2.578 11.843 11.843 0 0 1-2.579-3.797C.313 15.235 0 13.672 0 12c0-.828.078-1.629.234-2.402.157-.774.391-1.535.704-2.286.312-.75.683-1.437 1.113-2.062a11.48 11.48 0 0 1 1.465-1.734A11.843 11.843 0 0 1 7.312.937C8.767.313 10.329 0 12 0zm.023 4.852c-.656 0-1.253.109-1.793.328-.539.218-.996.515-1.37.89-.782.828-1.18 1.89-1.196 3.188h2.649c0-.625.148-1.164.445-1.617.297-.454.765-.68 1.406-.68.469 0 .84.133 1.113.398.274.266.41.672.41 1.22.016.952-.421 1.593-1.312 1.921-.922.344-1.437 1.281-1.547 2.813v1.265h2.414v-1.125c.11-1.094.688-1.805 1.735-2.133 1.015-.28 1.523-1.289 1.523-3.023 0-.328-.066-.695-.2-1.102-.132-.406-.378-.789-.738-1.148-.359-.36-.824-.649-1.394-.867-.57-.22-1.285-.328-2.145-.328zM12 15.867c-.547 0-1.004.184-1.371.551-.367.367-.55.824-.55 1.371s.183 1.004.55 1.371c.367.367.824.55 1.371.55s1.004-.183 1.371-.55c.367-.367.55-.824.55-1.37 0-.548-.183-1.005-.55-1.372-.367-.367-.824-.55-1.371-.55z"/>
    </g>
</svg>
