<svg xmlns="http://www.w3.org/2000/svg" width="336" height="220" viewBox="0 0 336 220">
    <g fill="none" fill-rule="evenodd">
        <path fill="#F9F9F9" d="M248.434 213.394a.534.534 0 0 1-.529.528H137.528c.294 0 .528-1.056.528-1.056h109.85c.282 0 .528.234.528.528zM258.825 213.923a.525.525 0 0 1-.527-.526v-23.416a.526.526 0 1 1 1.053 0v23.416a.525.525 0 0 1-.526.526"/>
        <path fill="#002133" d="M198.309 180.873v-.716H247.905v13.316h-49.597v-4.024z"/>
        <path fill="#F9F9F9" d="M258.825 194.004a.525.525 0 0 1-.527-.526v-13.326a.526.526 0 1 1 1.053 0v13.326a.525.525 0 0 1-.526.526"/>
        <path fill="#002133" d="M198.309 189.448v4.026h-60.516v-13.329h60.516V180.872z"/>
        <path fill="#F9F9F9" d="M138.322 194.565h59.458v12.272h-59.458v-12.272zm109.583 12.284h-49.068v-12.284h49.068a.531.531 0 0 0 .53-.515.535.535 0 0 0-.53-.529H137.793a.525.525 0 0 0-.53.516v13.328c0 .293.236.528.53.528h110.112a.534.534 0 0 0 .53-.528.532.532 0 0 0-.53-.516z"/>
        <path fill="#002133" d="M258.825 218.726h51.25V160.83h-51.25z"/>
        <path fill="#F9F9F9" d="M259.351 218.2h50.196v-56.844H259.35v56.843zm50.725 1.052h-51.251a.525.525 0 0 1-.527-.526V160.83c0-.29.235-.527.527-.527h51.25c.292 0 .527.236.527.527v57.896a.525.525 0 0 1-.526.526z"/>
        <path fill="#F9F9F9" d="M248.426 218.212h9.87v-56.856h-9.87v56.856zm10.399 1.054h-10.926a.527.527 0 0 1-.526-.527V160.83c0-.29.235-.527.526-.527h10.926c.291 0 .526.236.526.527v57.91c0 .289-.235.526-.526.526zM127.393 218.3h9.871v-56.944h-9.87v56.943zm10.4 1.052h-10.926a.525.525 0 0 1-.527-.526V160.83c0-.29.235-.527.527-.527h10.925c.292 0 .528.236.528.527v57.996a.526.526 0 0 1-.528.526z"/>
        <path fill="#002133" d="M137.792 180.151h20.077v-19.32h-20.077z"/>
        <path fill="#F9F9F9" d="M138.32 179.625h19.023v-18.27H138.32v18.27zm19.55 1.052h-20.078a.526.526 0 0 1-.526-.526v-19.32c0-.292.236-.528.526-.528h20.077c.292 0 .528.236.528.527v19.321a.526.526 0 0 1-.528.526z"/>
        <path fill="#002133" d="M293.648 136.918v23.912h16.428v-24.882z"/>
        <path fill="#F9F9F9" d="M294.175 160.303h15.372v-23.797l-15.372.908v22.889zm15.9 1.052h-16.427a.526.526 0 0 1-.527-.525v-23.912c0-.278.217-.508.495-.525l16.427-.971a.533.533 0 0 1 .394.143.524.524 0 0 1 .166.382v24.883c0 .29-.236.525-.528.525zM107.219 219.216a.532.532 0 0 1-.538-.525c0-.291.241-.527.538-.527h222.424c.295 0 .564.236.564.527a.51.51 0 0 1-.512.525H107.22zM3.102 199.655h101.194V153.69H3.102v45.965zm101.721 1.052H2.576a.526.526 0 0 1-.527-.527v-47.016c0-.29.235-.525.527-.525h102.247c.292 0 .527.234.527.525v47.016a.526.526 0 0 1-.527.527z"/>
        <path fill="#F9F9F9" d="M101.485 200.49a.525.525 0 0 1-.527-.526v-46.266c0-.291.235-.526.527-.526.291 0 .527.235.527.526v46.266a.525.525 0 0 1-.527.526M6.026 200.49a.525.525 0 0 1-.526-.526v-46.8a.526.526 0 1 1 1.054 0v46.8a.526.526 0 0 1-.528.526"/>
        <path fill="#002133" d="M6.026 197.122h28.41v-40.677H6.026z"/>
        <path fill="#F9F9F9" d="M6.555 196.594H33.91V156.97H6.555v39.624zm27.881 1.053H6.026a.526.526 0 0 1-.527-.525v-40.677c0-.291.235-.527.527-.527h28.41c.292 0 .528.236.528.527v40.677c0 .29-.236.525-.528.525z"/>
        <path fill="#002133" d="M34.358 176.673h67.13v-20.228h-67.13z"/>
        <path fill="#F9F9F9" d="M34.884 176.147h66.077V156.97H34.884v19.177zm66.604 1.053h-67.13a.526.526 0 0 1-.527-.527v-20.228c0-.291.235-.527.527-.527h67.13c.292 0 .529.236.529.527v20.228a.528.528 0 0 1-.529.527z"/>
        <path fill="#002133" d="M34.358 197.122h67.131v-20.338H34.358z"/>
        <path fill="#F9F9F9" d="M34.884 196.594h66.077V177.31H34.884v19.284zm66.604 1.053h-67.13a.526.526 0 0 1-.527-.525v-20.338c0-.29.235-.528.527-.528h67.13a.53.53 0 0 1 .529.528v20.338c0 .29-.237.525-.529.525z"/>
        <path fill="#FFF" d="M85.909 206.025h7.45v-5.775h-7.45z"/>
        <path fill="#001019" d="M86.436 205.497h6.395v-4.722h-6.395v4.722zm6.923 1.054h-7.45a.528.528 0 0 1-.528-.528v-5.773c0-.291.236-.527.528-.527h7.45c.29 0 .528.236.528.527v5.773a.529.529 0 0 1-.528.528z"/>
        <path fill="#70829C" d="M86.012 203.016h7.324v-2.34h-7.324z"/>
        <path fill="#002133" d="M85.909 206.025h7.45v-5.775h-7.45z"/>
        <path fill="#F9F9F9" d="M86.436 205.497h6.395v-4.722h-6.395v4.722zm6.923 1.054h-7.45a.528.528 0 0 1-.528-.528v-5.773c0-.291.236-.527.528-.527h7.45c.29 0 .528.236.528.527v5.773a.529.529 0 0 1-.528.528z"/>
        <path fill="#FFF" d="M14.04 206.025h7.45v-5.775h-7.45z"/>
        <path fill="#001019" d="M14.567 205.497h6.395v-4.722h-6.395v4.722zm6.923 1.054h-7.45a.529.529 0 0 1-.528-.528v-5.773c0-.291.237-.527.528-.527h7.45c.292 0 .528.236.528.527v5.773a.528.528 0 0 1-.528.528z"/>
        <path fill="#70829C" d="M14.29 203.016h7.322v-2.34H14.29z"/>
        <path fill="#002133" d="M14.04 206.025h7.45v-5.775h-7.45z"/>
        <path fill="#F9F9F9" d="M14.567 205.497h6.395v-4.722h-6.395v4.722zm6.923 1.054h-7.45a.529.529 0 0 1-.528-.528v-5.773c0-.291.237-.527.528-.527h7.45c.292 0 .528.236.528.527v5.773a.528.528 0 0 1-.528.528z"/>
        <path fill="#F9F9F9" d="M126.464 206.714H1.498a.527.527 0 1 1 0-1.052h124.966a.527.527 0 0 1 0 1.052"/>
        <path fill="#63738A" fill-opacity=".2" d="M11.868 89.685v48.387h81.868L62.56 119.645l-13.834 2.451-2.615-12.173z"/>
        <path fill="#002133" d="M177.996 174.595h40.662v-23.077h-40.662v23.077zm43.048-25.891h-45.446a.521.521 0 0 0-.518.515v27.736h14.965s.012-.013.012 0l.123 1.099 31.393-.573V149.22a.524.524 0 0 0-.53-.515z"/>
        <path fill="#F9F9F9" d="M178.526 174.068h39.603v-22.022h-39.603v22.022zm40.132-23.076c.293 0 .529.233.529.526v23.077c0 .294-.236.53-.53.53h-40.661a.527.527 0 0 1-.53-.53v-23.077c0-.293.236-.526.53-.526h40.662zm2.386-2.816c.588 0 1.058.47 1.058 1.043v27.736c0 .176-.081.34-.223.42a.455.455 0 0 1-.306.106.455.455 0 0 1-.306-.105.48.48 0 0 1-.223-.421v-27.736h-45.446v27.736a.48.48 0 0 1-.224.42.444.444 0 0 1-.294.106.455.455 0 0 1-.305-.105.48.48 0 0 1-.224-.421v-27.736c0-.574.47-1.043 1.047-1.043h45.446z"/>
        <path fill="#F9F9F9" d="M197.882 150.098a.444.444 0 0 1 .887 0 .443.443 0 0 1-.887 0"/>
        <path fill="#002133" d="M206.906 177.374h18.078c0 .714-.289 1.741-.759 2.211-.47.469-1.119.757-1.835.757h-48.127c-1.433 0-2.597-1.537-2.597-2.968H206.906z"/>
        <path fill="#F9F9F9" d="M222.389 180.868h-48.124c-1.79 0-3.126-1.845-3.126-3.495 0-.29.236-.526.528-.526h18.077a.527.527 0 1 1 0 1.053h-17.486c.228.962 1.038 1.916 2.007 1.916h48.124a2.06 2.06 0 0 0 1.463-.603c.24-.24.46-.78.555-1.313h-17.501a.527.527 0 0 1 0-1.053h18.078c.292 0 .527.235.527.526 0 .811-.32 1.992-.913 2.584a3.105 3.105 0 0 1-2.21.911"/>
        <path fill="#004366" d="M206.906 177.374l-1.142.68H190.18l-.435-.68z"/>
        <path fill="#F9F9F9" d="M205.765 178.58h-15.586a.527.527 0 0 1-.444-.243l-.435-.68a.524.524 0 0 1 .161-.726.525.525 0 0 1 .728.16l.278.437h15.153l1.016-.607a.529.529 0 0 1 .723.182c.15.25.068.573-.182.722l-1.143.681a.528.528 0 0 1-.27.074"/>
        <path fill="#004366" d="M195.43 168.294v-10.473l8.464 5.237z"/>
        <path fill="#F9F9F9" d="M195.959 167.346v-8.576l6.934 4.294-6.934 4.282zm8.215-4.74l-8.463-5.232a.531.531 0 1 0-.81.446v10.476a.531.531 0 0 0 .529.528.6.6 0 0 0 .28-.082l8.464-5.233a.532.532 0 0 0 .247-.445.552.552 0 0 0-.247-.458zM50.436 56.082h-.025a.528.528 0 0 1-.503-.55c.02-.445.045-.887.074-1.327a.528.528 0 0 1 1.054.073c-.03.431-.054.864-.074 1.3a.526.526 0 0 1-.526.504M115.262 1.118a.526.526 0 0 1-.021-1.051c.885-.037 1.78-.06 2.66-.067h.005c.289 0 .524.232.528.52a.528.528 0 0 1-.522.532c-.87.008-1.753.03-2.627.066h-.023zm10.567.23c-.014 0-.03 0-.045-.002a84.663 84.663 0 0 0-2.62-.18.528.528 0 0 1-.5-.554.535.535 0 0 1 .556-.497c.883.047 1.775.109 2.654.183a.527.527 0 0 1-.045 1.05zm-18.466.455a.526.526 0 0 1-.069-1.048 88.07 88.07 0 0 1 2.643-.31.525.525 0 1 1 .107 1.046c-.867.089-1.744.192-2.61.308a.71.71 0 0 1-.07.004zm26.324.6a.55.55 0 0 1-.097-.009A78.408 78.408 0 0 0 131 1.96a.527.527 0 0 1 .158-1.04c.872.13 1.755.279 2.625.44a.527.527 0 0 1-.096 1.044zm-34.12.816a.527.527 0 0 1-.118-1.04c.854-.197 1.73-.383 2.599-.556a.526.526 0 1 1 .204 1.033c-.86.17-1.722.354-2.566.549a.523.523 0 0 1-.12.014zm41.827 1.029a.497.497 0 0 1-.148-.021 73.654 73.654 0 0 0-2.53-.7.525.525 0 1 1 .264-1.02c.859.223 1.723.46 2.565.71a.526.526 0 0 1-.15 1.03zM91.944 5.37a.528.528 0 0 1-.168-1.026c.832-.28 1.683-.55 2.53-.803a.525.525 0 1 1 .303 1.008c-.835.25-1.676.517-2.497.794a.525.525 0 0 1-.168.027zm56.911 1.552a.522.522 0 0 1-.207-.043 66.934 66.934 0 0 0-2.432-.978.526.526 0 1 1 .374-.983c.83.314 1.661.649 2.472.994a.526.526 0 0 1-.207 1.01zM84.578 8.278a.526.526 0 0 1-.219-1.005c.797-.364 1.616-.721 2.434-1.061a.527.527 0 0 1 .406.973 72.53 72.53 0 0 0-2.401 1.045.543.543 0 0 1-.22.048zm71.362 2.189a.517.517 0 0 1-.265-.072 62.288 62.288 0 0 0-2.291-1.268.528.528 0 0 1 .491-.932c.787.415 1.573.85 2.331 1.292a.524.524 0 0 1-.266.98zm-78.368 1.492a.524.524 0 0 1-.452-.256.524.524 0 0 1 .18-.721 66.982 66.982 0 0 1 2.303-1.323.527.527 0 0 1 .51.92 66.97 66.97 0 0 0-2.27 1.305.527.527 0 0 1-.271.075zm84.931 2.938a.532.532 0 0 1-.32-.107c-.45-.341-.905-.683-1.367-1.023-.245-.182-.493-.36-.741-.536a.526.526 0 0 1-.124-.734.529.529 0 0 1 .736-.124c.253.181.506.363.756.548.466.343.925.687 1.38 1.031a.527.527 0 0 1-.32.945zM71.051 16.44a.526.526 0 0 1-.327-.94 64.272 64.272 0 0 1 2.127-1.596.528.528 0 0 1 .616.856c-.71.509-1.414 1.036-2.092 1.567a.53.53 0 0 1-.324.113zm97.57 3.476a.525.525 0 0 1-.352-.133 89.41 89.41 0 0 0-1.984-1.717.525.525 0 1 1 .68-.805 94.69 94.69 0 0 1 2.006 1.736.526.526 0 0 1-.35.919zM65.16 21.723a.525.525 0 0 1-.379-.892 55.891 55.891 0 0 1 1.9-1.867.53.53 0 0 1 .745.024c.2.212.19.544-.024.744a56.02 56.02 0 0 0-1.863 1.831.525.525 0 0 1-.378.16zm109.115 3.719a.53.53 0 0 1-.386-.168 79.69 79.69 0 0 0-1.815-1.89.525.525 0 0 1 .003-.744.528.528 0 0 1 .747.004 84.261 84.261 0 0 1 1.838 1.914.527.527 0 0 1-.387.884zM60.077 27.784a.526.526 0 0 1-.43-.833 55.192 55.192 0 0 1 1.613-2.125.528.528 0 0 1 .825.657 52.131 52.131 0 0 0-1.58 2.082.525.525 0 0 1-.428.22zm119.267 3.725a.527.527 0 0 1-.424-.21 70.746 70.746 0 0 0-1.604-2.07.526.526 0 1 1 .822-.658 72.372 72.372 0 0 1 1.627 2.098.523.523 0 0 1-.42.84zM55.967 34.54a.527.527 0 0 1-.47-.764c.401-.793.827-1.583 1.265-2.345a.528.528 0 0 1 .916.523 49.39 49.39 0 0 0-1.24 2.297.528.528 0 0 1-.471.289zm127.74 3.56a.528.528 0 0 1-.457-.261c-.436-.747-.894-1.5-1.36-2.234a.525.525 0 0 1 .161-.726.531.531 0 0 1 .73.163c.473.746.937 1.508 1.38 2.267a.526.526 0 0 1-.454.791zM52.959 41.846a.526.526 0 0 1-.501-.687c.273-.844.57-1.69.884-2.513a.527.527 0 0 1 .986.374c-.308.807-.6 1.636-.865 2.462a.53.53 0 0 1-.504.364zm134.354 3.284a.526.526 0 0 1-.482-.312 76.928 76.928 0 0 0-1.11-2.37.525.525 0 0 1 .241-.704.529.529 0 0 1 .706.24 80.49 80.49 0 0 1 1.126 2.405.527.527 0 0 1-.48.741zM51.11 49.527a.526.526 0 0 1-.522-.611c.144-.879.31-1.759.494-2.615a.528.528 0 0 1 1.031.22c-.18.84-.342 1.702-.483 2.565a.528.528 0 0 1-.52.441zm139.078 2.963a.53.53 0 0 1-.5-.358 92.34 92.34 0 0 0-.875-2.47.528.528 0 0 1 .989-.366c.304.82.603 1.66.886 2.498a.525.525 0 0 1-.5.696zm2.23 7.582a.526.526 0 0 1-.51-.396 106.04 106.04 0 0 0-.676-2.536.526.526 0 1 1 1.014-.283c.237.843.465 1.696.683 2.56a.527.527 0 0 1-.512.655zm1.693 7.723a.526.526 0 0 1-.517-.43c-.163-.869-.333-1.727-.51-2.576a.526.526 0 0 1 .409-.621.529.529 0 0 1 .624.408c.176.854.348 1.72.514 2.596a.525.525 0 0 1-.52.623zm1.267 7.805a.528.528 0 0 1-.521-.454 170.35 170.35 0 0 0-.38-2.6.526.526 0 0 1 .44-.6.522.522 0 0 1 .601.44c.134.861.261 1.734.384 2.616a.527.527 0 0 1-.524.598zm.935 7.854a.527.527 0 0 1-.523-.473c-.09-.882-.182-1.754-.28-2.616a.527.527 0 0 1 1.048-.117c.097.865.19 1.742.282 2.627a.528.528 0 0 1-.473.577c-.018.002-.035.002-.054.002zm.682 7.88a.528.528 0 0 1-.526-.488c-.064-.883-.131-1.76-.203-2.624a.528.528 0 0 1 1.052-.086c.07.87.139 1.747.204 2.634a.527.527 0 0 1-.527.564zm.485 7.896a.526.526 0 0 1-.525-.5c-.046-.885-.093-1.76-.144-2.63a.526.526 0 0 1 .497-.555.535.535 0 0 1 .557.495c.05.87.099 1.75.143 2.637a.526.526 0 0 1-.5.552h-.028zm.34 7.904a.527.527 0 0 1-.527-.508c-.03-.886-.062-1.764-.098-2.633a.527.527 0 0 1 1.054-.042c.034.871.067 1.75.099 2.637a.526.526 0 0 1-.51.545h-.018zm.228 7.907a.527.527 0 0 1-.526-.514l-.066-2.635a.526.526 0 0 1 .512-.54h.015c.284 0 .52.227.527.512.024.873.045 1.752.066 2.639a.525.525 0 0 1-.514.538h-.014zm.146 7.91a.528.528 0 0 1-.527-.518l-.04-2.636a.528.528 0 0 1 .518-.535c.313-.014.53.228.536.518.015.872.027 1.751.04 2.638a.528.528 0 0 1-.519.534h-.008zm.082 7.912a.526.526 0 0 1-.526-.522l-.023-2.636a.528.528 0 0 1 .523-.532h.005c.29 0 .524.232.527.522l.022 2.637a.527.527 0 0 1-.523.53h-.005zm.04 7.912a.527.527 0 0 1-.528-.525l-.008-2.637a.527.527 0 0 1 .526-.528h.002c.29 0 .525.235.527.525l.009 2.638c0 .29-.236.527-.528.527zM198.326 145.561a.527.527 0 0 1-.528-.526v-1.316a.527.527 0 0 1 1.054 0v1.316a.527.527 0 0 1-.526.526"/>
        <path fill="#002133" d="M67.798 94.698L71.2 113.04l-.007.001-3.83 5.612-.256.047-3.402-18.342-.047-.256 3.179-4.71-.093-.499z"/>
        <path fill="#002133" d="M66.743 94.893l.093.499-3.178 4.71.047.256-18.379 3.395 4.96-5.82z"/>
        <path fill="#F9F9F9" d="M71.2 113.566a.527.527 0 0 1-.517-.43L67.376 95.31l-16.994 3.14a.527.527 0 0 1-.192-1.035l17.511-3.235a.53.53 0 0 1 .615.42l3.402 18.344a.527.527 0 0 1-.518.621"/>
        <path fill="#F9F9F9" d="M45.94 104.175l3.21 17.307 17.343-3.204-3.21-17.306-17.342 3.203zm2.788 18.446a.53.53 0 0 1-.518-.43l-3.403-18.342a.528.528 0 0 1 .424-.614l18.378-3.394a.529.529 0 0 1 .615.421l3.4 18.342a.526.526 0 0 1-.421.614l-18.38 3.395a.513.513 0 0 1-.095.008z"/>
        <path fill="#F9F9F9" d="M67.363 119.18a.524.524 0 0 1-.435-.822l3.83-5.613a.526.526 0 0 1 .87.593l-3.829 5.611a.526.526 0 0 1-.436.23M63.656 100.629a.524.524 0 0 1-.436-.82l3.179-4.71a.527.527 0 0 1 .875.587l-3.18 4.71a.53.53 0 0 1-.438.233M45.326 104.28a.526.526 0 0 1-.402-.867l4.961-5.82a.528.528 0 0 1 .803.68l-4.96 5.821a.532.532 0 0 1-.402.185"/>
        <path fill="#004366" d="M53.93 115.988l-1.6-8.628 7.773 3.026z"/>
        <path fill="#F9F9F9" d="M53.021 108.194l1.255 6.769 4.843-4.396-6.098-2.373zm.91 8.32a.524.524 0 0 1-.518-.43l-1.601-8.628a.524.524 0 0 1 .71-.586l7.772 3.025a.527.527 0 0 1 .164.88l-6.173 5.602a.53.53 0 0 1-.355.137z"/>
        <path fill="#F9F9F9" d="M12.03 137.89h81.565V89.728H12.03v48.164zm82.092 1.053h-82.62a.527.527 0 0 1-.528-.527V89.202c0-.291.235-.527.528-.527h82.62c.292 0 .528.236.528.527v49.214a.527.527 0 0 1-.528.527zM8.16 141.757h89.31V85.86H8.16v55.897zm89.838 1.053H7.632a.527.527 0 0 1-.528-.527V85.335c0-.291.235-.527.528-.527h90.366c.291 0 .526.236.526.527v56.948a.526.526 0 0 1-.526.527z"/>
        <path fill="#002133" d="M67.656 72.014l1 5.398-.149-.086a6.955 6.955 0 0 0-8.598 1.287c.316-2.023.3-4.127-.096-6.252-1.058-5.724-4.638-10.352-9.376-12.952a15.29 15.29 0 0 1 1.914-.117c7.367 0 13.913 5.231 15.305 12.722M46.927 81.293l-.06.144a6.58 6.58 0 0 0-3.536-1.025 6.646 6.646 0 0 0-5.252 2.573l-.07.091-1.001-5.397c-1.518-8.195 3.703-16.081 11.748-17.97a18.56 18.56 0 0 0-4.13 15.46 18.585 18.585 0 0 0 2.3 6.124"/>
        <path fill="#F9F9F9" d="M38.01 83.602a.526.526 0 0 1-.518-.43l-1.003-5.398c-1.566-8.45 3.77-16.61 12.146-18.578a15.67 15.67 0 0 1 1.737-.31c.643-.08 1.31-.12 1.979-.12 7.754 0 14.408 5.531 15.823 13.153l1.001 5.397a.526.526 0 0 1-.78.553l-.15-.086a6.391 6.391 0 0 0-7.949 1.186.527.527 0 0 1-.774-.713 7.432 7.432 0 0 1 8.421-1.802l-.806-4.344a15.04 15.04 0 0 0-16.635-12.18 14.631 14.631 0 0 0-1.62.29c-7.833 1.839-12.818 9.466-11.355 17.363l.802 4.331a7.123 7.123 0 0 1 5.002-2.028c1.217 0 2.406.31 3.467.897a.526.526 0 0 1 .617.707l-.06.145a.53.53 0 0 1-.77.246 6.08 6.08 0 0 0-3.254-.943 6.08 6.08 0 0 0-4.836 2.37l-.068.088a.523.523 0 0 1-.418.206"/>
        <path fill="#F9F9F9" d="M46.927 81.814a.526.526 0 0 1-.491-.72c1.208-3.072 4.139-5.057 7.46-5.057 2.121 0 4.079.804 5.575 2.277l.06-.062a.528.528 0 0 1 .758.731c-.142.148-.264.29-.374.436a.528.528 0 0 1-.403.21.5.5 0 0 1-.416-.178 6.828 6.828 0 0 0-5.2-2.361c-2.885 0-5.428 1.722-6.479 4.39a.526.526 0 0 1-.49.334"/>
        <path fill="#F9F9F9" d="M59.91 79.142a.523.523 0 0 1-.527-.524v-.006c0-.027.002-.054.006-.08a17.988 17.988 0 0 0-.093-6.074 18.06 18.06 0 0 0-9.113-12.587.526.526 0 1 1 .507-.923 19.103 19.103 0 0 1 9.641 13.317c.398 2.133.432 4.292.1 6.42a.528.528 0 0 1-.522.457M46.927 81.822a.525.525 0 0 1-.479-.303 19.048 19.048 0 0 1-2.339-6.254 19.053 19.053 0 0 1 4.246-15.898.528.528 0 0 1 .743-.06c.221.189.25.52.059.742a18.019 18.019 0 0 0-4.012 15.025 18.03 18.03 0 0 0 2.236 5.95.53.53 0 0 1-.454.798"/>
        <path fill="#F9F9F9" d="M56.615 98.455a.528.528 0 0 1-.52-.615l3.295-19.31a.528.528 0 0 1 1.04.177l-3.297 19.31a.526.526 0 0 1-.518.438"/>
        <path fill="#F9F9F9" d="M56.615 98.455a.528.528 0 0 1-.456-.261L46.47 81.558a.53.53 0 0 1 .456-.794c.212 0 .396.125.48.307l9.664 16.593a.527.527 0 0 1-.456.791"/>
        <path fill="#F9F9F9" d="M56.614 98.455a.526.526 0 0 1-.456-.788L68.05 77.064a.527.527 0 0 1 .914.525L57.072 98.19a.53.53 0 0 1-.458.264"/>
        <path fill="#F9F9F9" d="M56.614 98.455a.525.525 0 0 1-.33-.117L37.746 83.395a.525.525 0 0 1-.078-.74.528.528 0 0 1 .741-.079L56.945 97.52a.525.525 0 0 1-.331.935M293.123 137.469l-134.726 6.06v36.096H247.9a.526.526 0 1 1 0 1.054H157.87a.526.526 0 0 1-.527-.527v-37.126c0-.281.223-.513.504-.525l135.78-6.108a.523.523 0 0 1 .55.526l-1.053.55z"/>
    </g>
</svg>
