<svg xmlns="http://www.w3.org/2000/svg" xmlns:xlink="http://www.w3.org/1999/xlink" width="158" height="105" viewBox="0 0 158 105">
    <defs>
        <path id="a" d="M91.571 1.72h-2.05c-.194-.371-.373-.759-.527-1.163h2.05c.162.388.333.776.527 1.163zM116.154.557c24.664.824 41.42 2.431 41.42 4.281 0 2.69-35.27 4.87-78.789 4.87-43.51 0-78.781-2.18-78.781-4.87 0-1.85 16.756-3.457 41.412-4.28l25.14-.453-20.95 1.615h-3.02l.54.606 3.308 5.452 64.956.067 3.308-6.327-.545-.336-2.02.068L91.19.557h24.964zm-49.199 0h1.75c-.161.404-.332.792-.526 1.163h-2.05l.04-.088c.187-.388.34-.735.479-1.075h.154c.048 0 .105-.008.153 0z"/>
        <path id="c" d="M1.766 2.554a.81.81 0 0 1-.809-.764.81.81 0 0 1 .756-.85l1.08-.07a.805.805 0 0 1 .83 1.036.827.827 0 0 1-.828.634c-.337 0-.673 0-.995.013l-.034.001z"/>
        <path id="e" d="M1.93 2.554h-.033c-.334-.014-.68-.015-1.03-.014a.81.81 0 0 1-.792-.63.805.805 0 0 1 .221-.825.796.796 0 0 1 .608-.216l1.08.071a.81.81 0 0 1 .756.85.81.81 0 0 1-.81.764z"/>
        <path id="g" d="M.805 3.59c0-1.784 1.45-3.231 3.24-3.231a3.236 3.236 0 0 1 3.242 3.23 3.236 3.236 0 0 1-3.242 3.232A3.236 3.236 0 0 1 .805 3.59z"/>
        <path id="i" d="M.903 3.59c0-1.784 1.45-3.231 3.24-3.231a3.237 3.237 0 0 1 3.242 3.23 3.237 3.237 0 0 1-3.242 3.232A3.236 3.236 0 0 1 .903 3.59z"/>
        <path id="k" d="M.854 5.182a.805.805 0 0 1-.7-1.212A6.526 6.526 0 0 1 5.784.73c2.313 0 4.47 1.24 5.63 3.238a.805.805 0 0 1-.295 1.104.812.812 0 0 1-1.107-.294 4.904 4.904 0 0 0-4.228-2.432 4.904 4.904 0 0 0-4.228 2.432.807.807 0 0 1-.702.404z"/>
        <path id="m" d="M5.07.12v.493c-.007.105-.023.21-.04.315-.17 1.421-.51 3.4-1.167 5.21-.048.145-.105.282-.16.42-.164.403-.334.79-.528 1.162-.057.121-.122.234-.186.348-.284.5-.608.953-.965 1.348l-1.19-1.09a5.2 5.2 0 0 0 .47-.606c.242-.347.453-.743.647-1.163a16.82 16.82 0 0 0 .624-1.672c.438-1.446.69-2.94.82-3.957.023-.17.039-.315.055-.453V.12h1.62z"/>
        <path id="o" d="M90.927 95.557h.113v-.008c-.032.008-.073.008-.113.008zM1.621 88.312h154.33V2.115H1.62v86.197zm110.365 8.408l-20.8-1.163-.146-.008v.008c.162.388.333.776.527 1.163.122.259.26.517.397.776a.81.81 0 0 1-.024.791.807.807 0 0 1-.689.396H66.465a.81.81 0 0 1-.729-1.163l.097-.194.292-.606.04-.088c.187-.388.34-.735.479-1.075v-.008l-.146.008L45.6 96.72l-2.106.122h-.073l3.281 5.565h64.156l3.29-5.565h-.073l-2.09-.122zM156.76.5c.446 0 .81.364.81.808V89.12a.806.806 0 0 1-.81.808H89.274c.138 1.017.38 2.504.827 3.95l25.41 1.429c.21.008.404.105.542.25.04.04.073.081.097.121.008.009.008.017.016.025a.813.813 0 0 1 .033.759l-.243.5-3.93 6.656a.814.814 0 0 1-.705.404h-65.08a.81.81 0 0 1-.696-.404l-3.898-6.599-.275-.557a.812.812 0 0 1 .024-.76c.008-.007.008-.015.016-.024a.469.469 0 0 1 .106-.12.762.762 0 0 1 .534-.251l25.11-1.397.187-.008.105-.009.121-.008.227-.016a.838.838 0 0 1 .6.218.804.804 0 0 1 .251.59.815.815 0 0 1-.032.234l-.025.089c-.008.016-.008.024-.016.04-.008.033-.024.065-.032.097a8.93 8.93 0 0 1-.162.42c-.138.364-.292.751-.487 1.163-.048.113-.097.227-.153.348h21.957c-.064-.113-.13-.226-.186-.348-.194-.371-.373-.759-.527-1.163a6.457 6.457 0 0 1-.162-.42c-.664-1.809-1.012-3.788-1.183-5.21H.81A.801.801 0 0 1 0 89.12V1.308C0 .863.357.5.81.5h155.95zM90.927 95.557h.113v-.008c-.032.008-.073.008-.113.008zm0 0h.113v-.008c-.032.008-.073.008-.113.008z"/>
        <path id="q" d="M2.04 72.642h137.498V1.786H2.041v70.856zM140.332.205c.444 0 .793.357.793.791v72.436c0 .434-.349.79-.793.79H1.247a.794.794 0 0 1-.792-.79V.996c0-.434.357-.79.792-.79h139.084z"/>
        <path id="s" d="M.745 2.291c0-.784.638-1.42 1.425-1.42.786 0 1.424.636 1.424 1.42 0 .784-.638 1.42-1.424 1.42a1.422 1.422 0 0 1-1.425-1.42z"/>
        <path id="u" d="M4.225 2.099H1.101a.809.809 0 1 1 0-1.615h3.124a.809.809 0 1 1 0 1.615z"/>
        <path id="w" d="M4.89 2.099H1.767a.809.809 0 1 1 0-1.615H4.89a.809.809 0 1 1 0 1.615z"/>
    </defs>
    <g fill="none" fill-rule="evenodd">
        <g transform="translate(0 95)">
            <mask id="b" fill="#fff">
                <use xlink:href="#a"/>
            </mask>
            <path fill="#63738A" fill-opacity=".294" d="M-4.996 14.708h167.57V-4.895H-4.995z" mask="url(#b)"/>
        </g>
        <g transform="translate(65 93)">
            <mask id="d" fill="#fff">
                <use xlink:href="#c"/>
            </mask>
            <path fill="#63738A" d="M-4.044 7.554h12.7V-4.133h-12.7z" mask="url(#d)"/>
        </g>
        <g transform="translate(89 93)">
            <mask id="f" fill="#fff">
                <use xlink:href="#e"/>
            </mask>
            <path fill="#63738A" d="M-4.96 7.554h12.7V-4.134h-12.7z" mask="url(#f)"/>
        </g>
        <g transform="translate(47 46)">
            <mask id="h" fill="#fff">
                <use xlink:href="#g"/>
            </mask>
            <path fill="#63738A" d="M-4.195 11.82h16.482V-4.64H-4.195z" mask="url(#h)"/>
        </g>
        <g transform="translate(102 46)">
            <mask id="j" fill="#fff">
                <use xlink:href="#i"/>
            </mask>
            <path fill="#63738A" d="M-4.097 11.82h16.482V-4.64H-4.097z" mask="url(#j)"/>
        </g>
        <g transform="translate(73 53)">
            <mask id="l" fill="#fff">
                <use xlink:href="#k"/>
            </mask>
            <path fill="#63738A" d="M-4.956 10.182h21.48V-4.27h-21.48z" mask="url(#l)"/>
        </g>
        <g transform="translate(65 89)">
            <mask id="n" fill="#fff">
                <use xlink:href="#m"/>
            </mask>
            <path fill="#63738A" d="M-4.166 14.416H10.07V-4.88H-4.166z" mask="url(#n)"/>
        </g>
        <g>
            <mask id="p" fill="#fff">
                <use xlink:href="#o"/>
            </mask>
            <path fill="#63738A" d="M-5 112.022h167.57V-1.5H-5z" mask="url(#p)"/>
        </g>
        <g transform="translate(8 8)">
            <mask id="r" fill="#fff">
                <use xlink:href="#q"/>
            </mask>
            <path fill="#63738A" d="M-4.545 79.222h150.669V-4.795H-4.545z" mask="url(#r)"/>
        </g>
        <g transform="translate(145 83)">
            <mask id="t" fill="#fff">
                <use xlink:href="#s"/>
            </mask>
            <path fill="#63738A" d="M-4.255 8.711H8.594v-12.84H-4.255z" mask="url(#t)"/>
        </g>
        <g transform="translate(137 84)">
            <mask id="v" fill="#fff">
                <use xlink:href="#u"/>
            </mask>
            <path fill="#63738A" d="M-4.71 7.099h14.746V-4.516H-4.71z" mask="url(#v)"/>
        </g>
        <g transform="translate(129 84)">
            <mask id="x" fill="#fff">
                <use xlink:href="#w"/>
            </mask>
            <path fill="#63738A" d="M-4.043 7.099H10.7V-4.516H-4.044z" mask="url(#x)"/>
        </g>
    </g>
</svg>
