<svg xmlns="http://www.w3.org/2000/svg" width="24" height="24" viewBox="0 0 24 24">
    <g fill="none" fill-rule="evenodd">
        <path fill="" d="M0 0h24v24H0z"/>
        <rect width="22" height="22" x="1" y="1" fill="#fff" rx="2"/>
        <g fill="#000">
            <path d="M5.791 10.717c-.591 0-1.103-.112-1.384-.255-.28-.144-.407-.344-.407-.623V9.8c0-.272.144-.464.407-.464.409 0 .44.496 1.344.496.68 0 1.025-.256 1.025-.687 0-.575-.569-.639-1.208-.838-1.024-.32-1.496-.734-1.496-1.677C4.072 5.543 4.887 5 6.03 5c.448 0 .872.072 1.152.192.312.135.424.311.424.582v.024c0 .28-.152.44-.376.44-.328 0-.455-.343-1.192-.343-.567 0-.895.192-.895.647 0 .422.375.566 1.031.742 1.216.328 1.728.702 1.728 1.732 0 1.086-.736 1.7-2.112 1.7M11.169 8.353h1.343l-.671-2.06h-.016l-.656 2.06zM9.993 10.67c-.352 0-.576-.264-.415-.702l1.526-4.336c.152-.423.433-.631.849-.631H12c.408 0 .664.223.817.647l1.51 4.271c.17.471-.111.751-.463.751H13.8c-.376 0-.576-.144-.704-.535l-.304-.927h-1.887l-.296.943c-.112.352-.296.52-.584.52h-.032zM17.248 5.894v1.837h.576c.76 0 1-.343 1-.934 0-.599-.209-.903-1-.903h-.576zm-.632 4.735c-.344 0-.616-.2-.616-.623V5.663c0-.407.256-.663.664-.663h1.192c1.416 0 2.223.56 2.223 1.78 0 1.206-.816 1.79-2.255 1.79h-.576v1.436c0 .423-.272.623-.616.623h-.016zM5.248 17.71h.488c1.159 0 1.695-.543 1.695-1.924 0-1.373-.528-1.893-1.695-1.893h-.488v3.817zm-.584.878c-.408 0-.664-.255-.664-.662v-4.263c0-.408.256-.663.664-.663h1.103c1.88 0 2.944.854 2.944 2.77 0 1.9-1.071 2.818-2.975 2.818H4.664zM13.668 13.48c.105-.304.304-.48.568-.48h.024c.4 0 .6.32.464.71l-1.504 4.304c-.183.52-.431.655-.831.655h-.049c-.4 0-.647-.136-.831-.655l-1.463-4.207c-.152-.448.087-.807.551-.807h.032c.304 0 .504.2.624.552l1.183 3.608h.017l1.215-3.68zM16.407 18.462c-.28-.144-.407-.344-.407-.623v-.04c0-.271.144-.464.407-.464.409 0 .44.496 1.344.496.68 0 1.025-.255 1.025-.687 0-.575-.569-.638-1.208-.838-1.024-.32-1.496-.734-1.496-1.677 0-1.086.816-1.629 1.959-1.629.448 0 .872.072 1.152.192.312.136.424.311.424.583v.024c0 .28-.152.44-.376.44-.328 0-.455-.344-1.192-.344-.567 0-.895.192-.895.647 0 .422.375.566 1.031.742 1.216.328 1.728.702 1.728 1.732 0 1.087-.736 1.7-2.112 1.7-.591 0-1.103-.11-1.384-.254z"/>
        </g>
    </g>
</svg>
