<svg xmlns="http://www.w3.org/2000/svg" width="24" height="24" viewBox="0 0 24 24">
    <g fill="none" fill-rule="evenodd">
        <path fill="" d="M0 0h24v24H0z"/>
        <path fill="#fff" d="M9.5 2.25h5l.332 3.066c.326.13.632.28.918.45.286.169.566.358.84.566l2.812-1.25 2.5 4.336-2.48 1.816a6.736 6.736 0 0 1 .058 1.524c-.013.17-.032.338-.058.508l2.48 1.816-2.5 4.336-2.812-1.25a8.63 8.63 0 0 1-.84.566c-.286.17-.592.32-.918.45L14.5 22.25h-5l-.332-3.066a6.671 6.671 0 0 1-.918-.45 8.63 8.63 0 0 1-.84-.566l-2.812 1.25-2.5-4.336 2.48-1.816a6.736 6.736 0 0 1-.058-1.524c.013-.17.032-.338.058-.508l-2.48-1.816 2.5-4.336 2.812 1.25a8.63 8.63 0 0 1 .84-.566c.286-.17.592-.32.918-.45L9.5 2.25zM12 7.875c-.599 0-1.165.114-1.7.342a4.357 4.357 0 0 0-2.333 2.334 4.283 4.283 0 0 0-.342 1.699 4.283 4.283 0 0 0 1.29 3.086A4.283 4.283 0 0 0 12 16.626c.598-.001 1.164-.115 1.698-.343a4.357 4.357 0 0 0 2.334-2.334c.228-.534.342-1.1.342-1.699s-.114-1.165-.342-1.7a4.597 4.597 0 0 0-.928-1.405c-.403-.391-.872-.7-1.406-.928A4.283 4.283 0 0 0 12 7.875z"/>
    </g>
</svg>
